<?plantuml 1.2026.2?><svg xmlns="http://www.w3.org/2000/svg" xmlns:xlink="http://www.w3.org/1999/xlink" contentStyleType="text/css" data-diagram-type="DESCRIPTION" height="523px" preserveAspectRatio="none" style="width:1022px;height:523px;background:#FFFFFF;" version="1.1" viewBox="0 0 1022 523" width="1022px" zoomAndPan="magnify"><defs/><g><!--cluster editarRegistro--><g class="cluster" data-qualified-name="editarRegistro" data-source-line="13" id="ent0004"><path d="M8.5,106 L136.2998,106 A3.75,3.75 0 0 1 138.7998,108.5 L145.7998,128.2969 L859.5,128.2969 A2.5,2.5 0 0 1 862,130.7969 L862,513.5 A2.5,2.5 0 0 1 859.5,516 L8.5,516 A2.5,2.5 0 0 1 6,513.5 L6,108.5 A2.5,2.5 0 0 1 8.5,106" fill="none" style="stroke:#000000;stroke-width:1.5;"/><line style="stroke:#000000;stroke-width:1.5;" x1="6" x2="145.7998" y1="128.2969" y2="128.2969"/><text fill="#000000" font-family="sans-serif" font-size="14" font-weight="bold" lengthAdjust="spacing" textLength="126.7998" x="10" y="120.9951">editarRegistro()</text></g><!--entity EditarRegistroView--><g class="entity" data-qualified-name="editarRegistro.EditarRegistroView" data-source-line="14" id="ent0005"><rect fill="#629EF9" height="36.2969" rx="2.5" ry="2.5" style="stroke:#181818;stroke-width:0.5;" width="153.1982" x="424.5" y="141"/><text fill="#000000" font-family="sans-serif" font-size="14" lengthAdjust="spacing" textLength="133.1982" x="434.5" y="163.9951">EditarRegistroView</text></g><!--entity RegistroClinicoController--><g class="entity" data-qualified-name="editarRegistro.RegistroClinicoController" data-source-line="15" id="ent0006"><rect fill="#B5BD68" height="36.2969" rx="2.5" ry="2.5" style="stroke:#181818;stroke-width:0.5;" width="193.9746" x="280" y="254"/><text fill="#000000" font-family="sans-serif" font-size="14" lengthAdjust="spacing" textLength="173.9746" x="290" y="276.9951">RegistroClinicoController</text></g><!--entity RegistroClinicoRepository--><g class="entity" data-qualified-name="editarRegistro.RegistroClinicoRepository" data-source-line="16" id="ent0007"><rect fill="#F2AC4E" height="36.2969" rx="2.5" ry="2.5" style="stroke:#181818;stroke-width:0.5;" width="199.874" x="155" y="367"/><text fill="#000000" font-family="sans-serif" font-size="14" lengthAdjust="spacing" textLength="179.874" x="165" y="389.9951">RegistroClinicoRepository</text></g><!--entity RegistroClinico--><g class="entity" data-qualified-name="editarRegistro.RegistroClinico" data-source-line="17" id="ent0008"><rect fill="#F2AC4E" height="36.2969" rx="2.5" ry="2.5" style="stroke:#181818;stroke-width:0.5;" width="124.8018" x="192.5" y="464"/><text fill="#000000" font-family="sans-serif" font-size="14" lengthAdjust="spacing" textLength="104.8018" x="202.5" y="486.9951">RegistroClinico</text></g><!--entity RegistroAbiertoEntrada--><g class="entity" data-qualified-name="RegistroAbiertoEntrada" data-source-line="10" id="ent0002"><rect fill="#CDEBA5" height="36.2969" rx="2.5" ry="2.5" style="stroke:#181818;stroke-width:0.5;" width="138.166" x="432" y="7"/><text fill="#000000" font-family="sans-serif" font-size="14" lengthAdjust="spacing" textLength="118.166" x="442" y="29.9951">:Registro Abierto</text></g><!--entity RegistroAbiertoSalida--><g class="entity" data-qualified-name="RegistroAbiertoSalida" data-source-line="11" id="ent0003"><rect fill="#CDEBA5" height="36.2969" rx="2.5" ry="2.5" style="stroke:#181818;stroke-width:0.5;" width="138.166" x="878" y="254"/><text fill="#000000" font-family="sans-serif" font-size="14" lengthAdjust="spacing" textLength="118.166" x="888" y="276.9951">:Registro Abierto</text></g><!--link RegistroAbiertoEntrada to EditarRegistroView--><g class="link" data-entity-1="ent0002" data-entity-2="ent0005" data-link-type="dependency" data-source-line="20" id="lnk9"><path d="M501,43.26 C501,68.55 501,109.44 501,134.74" fill="none" id="RegistroAbiertoEntrada-to-EditarRegistroView" style="stroke:#181818;stroke-width:1;"/><polygon fill="#181818" points="501,140.74,505,131.74,501,135.74,497,131.74,501,140.74" style="stroke:#181818;stroke-width:1;"/><text fill="#000000" font-family="sans-serif" font-size="13" lengthAdjust="spacing" textLength="164.9375" x="502" y="86.0669">editarRegistro(registroId)</text></g><!--link EditarRegistroView to RegistroClinicoController--><g class="link" data-entity-1="ent0005" data-entity-2="ent0006" data-link-type="dependency" data-source-line="22" id="lnk10"><path d="M424.41,168.05 C296.68,181.48 54,207 54,207 C54,207 54,224 54,224 C54,224 178.6125,242.1365 273.7125,255.9665" fill="none" id="EditarRegistroView-to-RegistroClinicoController" style="stroke:#181818;stroke-width:1;"/><polygon fill="#181818" points="279.65,256.83,271.3193,251.5764,274.702,256.1104,270.168,259.4932,279.65,256.83" style="stroke:#181818;stroke-width:1;"/><text fill="#000000" font-family="sans-serif" font-size="13" lengthAdjust="spacing" textLength="278.6494" x="55" y="220.0669">cargarRegistro(registroId) : RegistroClinico</text></g><!--link EditarRegistroView to RegistroClinicoController--><g class="link" data-entity-1="ent0005" data-entity-2="ent0006" data-link-type="dependency" data-source-line="26" id="lnk13"><path d="M454.79,177.1 C418.48,190.54 374,207 374,207 C374,207 374,224 374,224 C374,224 374.6563,234.3623 375.5163,247.7823" fill="none" id="EditarRegistroView-to-RegistroClinicoController-1" style="stroke:#181818;stroke-width:1;"/><polygon fill="#181818" points="375.9,253.77,379.3162,244.5326,375.5802,248.7802,371.3326,245.0442,375.9,253.77" style="stroke:#181818;stroke-width:1;"/><text fill="#000000" font-family="sans-serif" font-size="13" lengthAdjust="spacing" textLength="207.3843" x="375" y="220.0669">validarDatos(registro) : boolean</text></g><!--link EditarRegistroView to RegistroClinicoController--><g class="link" data-entity-1="ent0005" data-entity-2="ent0006" data-link-type="dependency" data-source-line="27" id="lnk14"><path d="M532.53,177.23 C557.08,190.65 587,207 587,207 C587,207 587,224 587,224 C587,224 519.065,239.1987 458.965,252.6587" fill="none" id="EditarRegistroView-to-RegistroClinicoController-2" style="stroke:#181818;stroke-width:1;"/><polygon fill="#181818" points="453.11,253.97,462.7666,255.9064,457.9891,252.8773,461.0183,248.0998,453.11,253.97" style="stroke:#181818;stroke-width:1;"/><text fill="#000000" font-family="sans-serif" font-size="13" lengthAdjust="spacing" textLength="218.5117" x="588" y="220.0669">actualizarRegistro(registro) : void</text></g><!--link RegistroClinicoController to RegistroClinicoRepository--><g class="link" data-entity-1="ent0006" data-entity-2="ent0007" data-link-type="dependency" data-source-line="23" id="lnk11"><path d="M279.88,289.97 C202.83,303.43 108,320 108,320 C108,320 108,337 108,337 C108,337 153.7651,351.6325 195.7951,365.0725" fill="none" id="RegistroClinicoController-to-RegistroClinicoRepository" style="stroke:#181818;stroke-width:1;"/><polygon fill="#181818" points="201.51,366.9,194.1559,360.3488,196.7476,365.3771,191.7193,367.9687,201.51,366.9" style="stroke:#181818;stroke-width:1;"/><text fill="#000000" font-family="sans-serif" font-size="13" lengthAdjust="spacing" textLength="235.9424" x="109" y="333.0669">findById(registroId) : RegistroClinico</text></g><!--link RegistroClinicoController to RegistroClinicoRepository--><g class="link" data-entity-1="ent0006" data-entity-2="ent0007" data-link-type="dependency" data-source-line="28" id="lnk15"><path d="M369.5,290.15 C361.2,309.11 349,337 349,337 C349,337 321.4466,350.7767 294.5666,364.2167" fill="none" id="RegistroClinicoController-to-RegistroClinicoRepository-1" style="stroke:#181818;stroke-width:1;"/><polygon fill="#181818" points="289.2,366.9,299.0387,366.4528,293.6721,364.6639,295.461,359.2974,289.2,366.9" style="stroke:#181818;stroke-width:1;"/><text fill="#000000" font-family="sans-serif" font-size="13" lengthAdjust="spacing" textLength="146.4785" x="357" y="333.0669">update(registro) : void</text></g><!--link RegistroClinicoRepository to RegistroClinico--><g class="link" data-entity-1="ent0007" data-entity-2="ent0008" data-link-type="association" data-source-line="24" id="lnk12"><path d="M255,403.42 C255,420.57 255,446.58 255,463.69" fill="none" id="RegistroClinicoRepository-RegistroClinico" style="stroke:#181818;stroke-width:1;"/></g><!--link EditarRegistroView to RegistroAbiertoSalida--><g class="link" data-entity-1="ent0005" data-entity-2="ent0003" data-link-type="dependency" data-source-line="30" id="lnk16"><path d="M577.81,171.5 C670.77,185.41 815,207 815,207 C815,207 867.1312,232.2721 906.2312,251.2321" fill="none" id="EditarRegistroView-to-RegistroAbiertoSalida" style="stroke:#181818;stroke-width:1;stroke-dasharray:7,7;"/><polygon fill="#181818" points="911.63,253.85,905.2771,246.324,907.131,251.6684,901.7866,253.5223,911.63,253.85" style="stroke:#181818;stroke-width:1;"/><text fill="#000000" font-family="sans-serif" font-size="13" lengthAdjust="spacing" textLength="141.8765" x="848" y="220.0669">abrirRegistroAbierto()</text></g><?plantuml-src rPEnRi8m48PtFyKf7O0X3AYWaW4fXD1cGWgeQtM9tSWYZIF7KALLfJv4dx1FKgS2IesHMfYGCYI-tz_zzzjfmUV7-yKzf0MCSeKoPXclb1JjZbwQi8eo3-BmDfelujc3Fux2U37JbJjCELeh5paz8TMI5oLAV8AS5qpL9ODIv7NpGOXagS8YonbS1PDmxFV1yRP1WPzm9fLm000hs2vlLiD2IQHu1c6EETS0KcAwn8mPnzHiSCoJS-2LQ1RiDHtqXk5q2E4lvJrdpwOmwITqSBCp4UW0U2e2eUSGUSwagP_s_E0wDFKnAqN5bP3rt_JaZH1xSk2w8ujjyCpxAZSl4UqGOjdGS8vErPZq84MPsOcwQ3e-ph9q-ib3anvvGSTrHF_NO0_XkWVY4oTUVrykEK4bgfsTnamYHCwmE16BgLffyeibp0Q-5foUaT-gfAZO8T5cjjiTsN-encKYkJIAxSuN?></g></svg>