<svg xmlns="http://www.w3.org/2000/svg" xmlns:xlink="http://www.w3.org/1999/xlink" contentStyleType="text/css" data-diagram-type="STATE" height="131px" preserveAspectRatio="none" style="width:105px;height:131px;background:#FFFFFF;" version="1.1" viewBox="0 0 105 131" width="105px" zoomAndPan="magnify"><defs/><g><ellipse cx="55.89" cy="16" fill="#222222" rx="10" ry="10" style="stroke:#222222;stroke-width:1;"/><ellipse cx="55.89" cy="114" fill="none" rx="11" ry="11" style="stroke:#222222;stroke-width:1;"/><ellipse cx="55.89" cy="114" fill="#222222" rx="6" ry="6" style="stroke:#222222;stroke-width:1;"/><!--link *start* to *end*--><g class="link" data-entity-1=".start." data-entity-2=".end." data-source-line="1" data-uid="lnk4" id="link_.start._.end."><path d="M47.35,22.04 C32.89,31.27 6,51.9 14.89,73 C21.38,88.4 32.0331,97.4588 42.0131,104.1788" fill="none" id="*start*-to-*end*" style="stroke:#181818;stroke-width:1;"/><polygon fill="#181818" points="46.99,107.53,41.7588,99.1853,42.8426,104.7373,37.2905,105.8212,46.99,107.53" style="stroke:#181818;stroke-width:1;"/><text fill="#000000" font-family="sans-serif" font-size="13" lengthAdjust="spacing" textLength="35.2993" x="15.89" y="69.0669">Login</text></g><!--link *start* to *end*--><g class="link" data-entity-1=".start." data-entity-2=".end." data-source-line="2" data-uid="lnk5" id="link_.start._.end."><path d="M55.89,26.2 C55.89,44.23 55.89,78.04 55.89,96.82" fill="none" id="*start*-to-*end*-1" style="stroke:#181818;stroke-width:1;"/><polygon fill="#181818" points="55.89,102.82,59.89,93.82,55.89,97.82,51.89,93.82,55.89,102.82" style="stroke:#181818;stroke-width:1;"/><text fill="#000000" font-family="sans-serif" font-size="13" lengthAdjust="spacing" textLength="40.2061" x="56.89" y="69.0669">Signin</text></g><!--SRC=[YzQALT3LjLE81j9M2ZxvwPbvND4eOi6PwNcPUG00]--></g></svg>