<svg xmlns="http://www.w3.org/2000/svg" xmlns:xlink="http://www.w3.org/1999/xlink" contentStyleType="text/css" data-diagram-type="SALT" height="264px" preserveAspectRatio="none" style="width:223px;height:264px;background:#FFFFFF;" version="1.1" viewBox="0 0 223 264" width="223px" zoomAndPan="magnify"><defs/><g><text fill="#000000" font-family="sans-serif" font-size="12" font-weight="bold" lengthAdjust="spacing" textLength="66.1406" x="8" y="17.1387">Logopeda</text><line style="stroke:#000000;stroke-width:1;" x1="6" x2="6" y1="6" y2="19.9688"/><line style="stroke:#000000;stroke-width:1;" x1="6" x2="77.1406" y1="6" y2="6"/><line style="stroke:#000000;stroke-width:1;" x1="77.1406" x2="77.1406" y1="6" y2="19.9688"/><line style="stroke:#000000;stroke-width:1;" x1="77.1406" x2="87.1406" y1="19.9688" y2="19.9688"/><text fill="#000000" font-family="sans-serif" font-size="12" lengthAdjust="spacing" textLength="64.4824" x="89.1406" y="17.1387">Dra. López</text><line style="stroke:#000000;stroke-width:1;" x1="87.1406" x2="87.1406" y1="6" y2="19.9688"/><line style="stroke:#000000;stroke-width:1;" x1="87.1406" x2="156.623" y1="6" y2="6"/><line style="stroke:#000000;stroke-width:1;" x1="156.623" x2="156.623" y1="6" y2="19.9688"/><line style="stroke:#000000;stroke-width:1;" x1="156.623" x2="166.623" y1="19.9688" y2="19.9688"/><line style="stroke:#AAAAAA;stroke-width:1;" x1="6" x2="216.5781" y1="24.4688" y2="24.4688"/><line style="stroke:#AAAAAA;stroke-width:1;" x1="6" x2="216.5781" y1="26.4688" y2="26.4688"/><rect fill="#EEEEEE" height="17.9688" rx="5" ry="5" style="stroke:#000000;stroke-width:2.5;" width="180" x="10.5" y="34.4688"/><text fill="#000000" font-family="sans-serif" font-size="12" lengthAdjust="spacing" textLength="68.8652" x="66.0674" y="47.6074">👥 Pacientes</text><rect fill="#EEEEEE" height="17.9688" rx="5" ry="5" style="stroke:#000000;stroke-width:2.5;" width="180" x="10.5" y="59.4375"/><text fill="#000000" font-family="sans-serif" font-size="12" lengthAdjust="spacing" textLength="80.5195" x="60.2402" y="72.5762">🧩 Actividades</text><rect fill="#EEEEEE" height="17.9688" rx="5" ry="5" style="stroke:#000000;stroke-width:2.5;" width="180" x="10.5" y="86.4063"/><text fill="#000000" font-family="sans-serif" font-size="12" lengthAdjust="spacing" textLength="64.1836" x="68.4082" y="99.5449">📋 Sesiones</text><rect fill="#EEEEEE" height="17.9688" rx="5" ry="5" style="stroke:#000000;stroke-width:2.5;" width="180" x="10.5" y="111.375"/><text fill="#000000" font-family="sans-serif" font-size="12" lengthAdjust="spacing" textLength="67.1719" x="66.9141" y="124.5137">📝 Registros</text><line style="stroke:#AAAAAA;stroke-width:1;" x1="6" x2="216.5781" y1="138.3438" y2="138.3438"/><line style="stroke:#AAAAAA;stroke-width:1;" x1="6" x2="216.5781" y1="140.3438" y2="140.3438"/><text fill="#000000" font-family="sans-serif" font-size="12" font-weight="bold" lengthAdjust="spacing" textLength="122.2676" x="6" y="154.9824">Resumen reciente</text><text fill="#000000" font-family="sans-serif" font-size="12" lengthAdjust="spacing" textLength="51.5977" x="7" y="171.9512">Paciente</text><text fill="#000000" font-family="sans-serif" font-size="12" lengthAdjust="spacing" textLength="81.1816" x="78.3574" y="171.9512">Última sesión</text><text fill="#000000" font-family="sans-serif" font-size="12" lengthAdjust="spacing" textLength="53.0391" x="161.5391" y="171.9512">Progreso</text><text fill="#000000" font-family="sans-serif" font-size="12" lengthAdjust="spacing" textLength="65.8535" x="7" y="187.9199">Ana García</text><text fill="#000000" font-family="sans-serif" font-size="12" lengthAdjust="spacing" textLength="69.1641" x="78.3574" y="187.9199">15/05/2026</text><text fill="#000000" font-family="sans-serif" font-size="12" lengthAdjust="spacing" textLength="30.4863" x="161.5391" y="187.9199">80 %</text><text fill="#000000" font-family="sans-serif" font-size="12" lengthAdjust="spacing" textLength="69.3574" x="7" y="203.8887">Tomás Ruiz</text><text fill="#000000" font-family="sans-serif" font-size="12" lengthAdjust="spacing" textLength="69.1641" x="78.3574" y="203.8887">12/05/2026</text><text fill="#000000" font-family="sans-serif" font-size="12" lengthAdjust="spacing" textLength="30.4863" x="161.5391" y="203.8887">45 %</text><text fill="#000000" font-family="sans-serif" font-size="12" lengthAdjust="spacing" textLength="68.3086" x="7" y="219.8574">Laura Vega</text><text fill="#000000" font-family="sans-serif" font-size="12" lengthAdjust="spacing" textLength="69.1641" x="78.3574" y="219.8574">08/05/2026</text><text fill="#000000" font-family="sans-serif" font-size="12" lengthAdjust="spacing" textLength="30.4863" x="161.5391" y="219.8574">92 %</text><line style="stroke:#000000;stroke-width:1;" x1="6" x2="77.3574" y1="159.8125" y2="159.8125"/><line style="stroke:#000000;stroke-width:1;" x1="160.5391" x2="215.5781" y1="191.75" y2="191.75"/><line style="stroke:#000000;stroke-width:1;" x1="77.3574" x2="160.5391" y1="159.8125" y2="159.8125"/><line style="stroke:#000000;stroke-width:1;" x1="160.5391" x2="215.5781" y1="159.8125" y2="159.8125"/><line style="stroke:#000000;stroke-width:1;" x1="6" x2="77.3574" y1="207.7188" y2="207.7188"/><line style="stroke:#000000;stroke-width:1;" x1="77.3574" x2="160.5391" y1="207.7188" y2="207.7188"/><line style="stroke:#000000;stroke-width:1;" x1="6" x2="77.3574" y1="175.7813" y2="175.7813"/><line style="stroke:#000000;stroke-width:1;" x1="160.5391" x2="215.5781" y1="207.7188" y2="207.7188"/><line style="stroke:#000000;stroke-width:1;" x1="77.3574" x2="160.5391" y1="175.7813" y2="175.7813"/><line style="stroke:#000000;stroke-width:1;" x1="160.5391" x2="215.5781" y1="175.7813" y2="175.7813"/><line style="stroke:#000000;stroke-width:1;" x1="6" x2="77.3574" y1="223.6875" y2="223.6875"/><line style="stroke:#000000;stroke-width:1;" x1="77.3574" x2="160.5391" y1="223.6875" y2="223.6875"/><line style="stroke:#000000;stroke-width:1;" x1="160.5391" x2="215.5781" y1="223.6875" y2="223.6875"/><line style="stroke:#000000;stroke-width:1;" x1="6" x2="77.3574" y1="191.75" y2="191.75"/><line style="stroke:#000000;stroke-width:1;" x1="77.3574" x2="160.5391" y1="191.75" y2="191.75"/><line style="stroke:#000000;stroke-width:1;" x1="6" x2="6" y1="159.8125" y2="175.7813"/><line style="stroke:#000000;stroke-width:1;" x1="160.5391" x2="160.5391" y1="191.75" y2="207.7188"/><line style="stroke:#000000;stroke-width:1;" x1="215.5781" x2="215.5781" y1="191.75" y2="207.7188"/><line style="stroke:#000000;stroke-width:1;" x1="77.3574" x2="77.3574" y1="159.8125" y2="175.7813"/><line style="stroke:#000000;stroke-width:1;" x1="160.5391" x2="160.5391" y1="159.8125" y2="175.7813"/><line style="stroke:#000000;stroke-width:1;" x1="215.5781" x2="215.5781" y1="159.8125" y2="175.7813"/><line style="stroke:#000000;stroke-width:1;" x1="6" x2="6" y1="207.7188" y2="223.6875"/><line style="stroke:#000000;stroke-width:1;" x1="77.3574" x2="77.3574" y1="207.7188" y2="223.6875"/><line style="stroke:#000000;stroke-width:1;" x1="6" x2="6" y1="175.7813" y2="191.75"/><line style="stroke:#000000;stroke-width:1;" x1="160.5391" x2="160.5391" y1="207.7188" y2="223.6875"/><line style="stroke:#000000;stroke-width:1;" x1="215.5781" x2="215.5781" y1="207.7188" y2="223.6875"/><line style="stroke:#000000;stroke-width:1;" x1="77.3574" x2="77.3574" y1="175.7813" y2="191.75"/><line style="stroke:#000000;stroke-width:1;" x1="160.5391" x2="160.5391" y1="175.7813" y2="191.75"/><line style="stroke:#000000;stroke-width:1;" x1="215.5781" x2="215.5781" y1="175.7813" y2="191.75"/><line style="stroke:#000000;stroke-width:1;" x1="6" x2="6" y1="191.75" y2="207.7188"/><line style="stroke:#000000;stroke-width:1;" x1="77.3574" x2="77.3574" y1="191.75" y2="207.7188"/><line style="stroke:#AAAAAA;stroke-width:1;" x1="6" x2="216.5781" y1="229.1875" y2="229.1875"/><rect fill="#EEEEEE" height="17.9688" rx="5" ry="5" style="stroke:#000000;stroke-width:2.5;" width="140" x="8.5" y="236.1875"/><text fill="#000000" font-family="sans-serif" font-size="12" lengthAdjust="spacing" textLength="79.8984" x="38.5508" y="249.3262">Cerrar sesión</text><line style="stroke:#000000;stroke-width:1;" x1="5" x2="216.5781" y1="5" y2="5"/><line style="stroke:#000000;stroke-width:1;" x1="5" x2="216.5781" y1="257.6563" y2="257.6563"/><line style="stroke:#000000;stroke-width:1;" x1="5" x2="5" y1="5" y2="20.9688"/><line style="stroke:#000000;stroke-width:1;" x1="216.5781" x2="216.5781" y1="5" y2="20.9688"/><line style="stroke:#000000;stroke-width:1;" x1="5" x2="5" y1="232.6875" y2="257.6563"/><line style="stroke:#000000;stroke-width:1;" x1="216.5781" x2="216.5781" y1="232.6875" y2="257.6563"/><line style="stroke:#000000;stroke-width:1;" x1="5" x2="5" y1="158.8125" y2="224.6875"/><line style="stroke:#000000;stroke-width:1;" x1="216.5781" x2="216.5781" y1="158.8125" y2="224.6875"/><line style="stroke:#000000;stroke-width:1;" x1="5" x2="5" y1="134.8438" y2="142.8438"/><line style="stroke:#000000;stroke-width:1;" x1="216.5781" x2="216.5781" y1="134.8438" y2="142.8438"/><line style="stroke:#000000;stroke-width:1;" x1="5" x2="5" y1="20.9688" y2="28.9688"/><line style="stroke:#000000;stroke-width:1;" x1="216.5781" x2="216.5781" y1="20.9688" y2="28.9688"/><line style="stroke:#000000;stroke-width:1;" x1="5" x2="5" y1="224.6875" y2="232.6875"/><line style="stroke:#000000;stroke-width:1;" x1="216.5781" x2="216.5781" y1="224.6875" y2="232.6875"/><line style="stroke:#000000;stroke-width:1;" x1="5" x2="5" y1="142.8438" y2="158.8125"/><line style="stroke:#000000;stroke-width:1;" x1="216.5781" x2="216.5781" y1="142.8438" y2="158.8125"/><line style="stroke:#000000;stroke-width:1;" x1="5" x2="5" y1="28.9688" y2="134.8438"/><line style="stroke:#000000;stroke-width:1;" x1="216.5781" x2="216.5781" y1="28.9688" y2="134.8438"/><!--SRC=[PO_1IiD054Nt-OeBuaeqCHYfK0j5mKqM9OgRqiLhyWW3JQRC92xQvWjSINU2Y0iH5wxw2VcXVeAJrAGbNfWPU9ntvrvDiynQdbZ0qaP_El1bBESSKT-U3h32hQ8p-ELcpWiK1hesgbXpcXiORzzVFZ6YK72QiKQhoHxu-iOmpCIJY2ZQ8pkWwBgjdt7FMiZqqEpGRVs6W6EXCoN_VLUv7KGrdGBMUS8f5EyILjsg4aSrt-HkN5OeNsUPI0ZQP2WtQJqRAHahrh9U6QQ4Er9X-KFDphbdEvxjEkvbC-avEAxf1vcK7nf1BXOjxNRf2- -FzYbNX4UEMskdruMlt1gkMfuQcMSCtB1IfFQX9rRn2m00]--></g></svg>