<svg xmlns="http://www.w3.org/2000/svg" xmlns:xlink="http://www.w3.org/1999/xlink" contentStyleType="text/css" data-diagram-type="STATE" height="545px" preserveAspectRatio="none" style="width:504px;height:545px;background:#FFFFFF;" version="1.1" viewBox="0 0 504 545" width="504px" zoomAndPan="magnify"><defs/><g><ellipse cx="194.5" cy="16" fill="#222222" rx="10" ry="10" style="stroke:#222222;stroke-width:1;"/><g id="EnCurso"><rect fill="#F1F1F1" height="50" rx="12.5" ry="12.5" style="stroke:#181818;stroke-width:0.5;" width="77.9824" x="155.5" y="103"/><line style="stroke:#181818;stroke-width:0.5;" x1="155.5" x2="233.4824" y1="129.2969" y2="129.2969"/><text fill="#000000" font-family="sans-serif" font-size="14" lengthAdjust="spacing" textLength="57.9824" x="165.5" y="120.9951">EnCurso</text></g><g id="Pausada"><rect fill="#F1F1F1" height="50" rx="12.5" ry="12.5" style="stroke:#181818;stroke-width:0.5;" width="79.2334" x="7" y="230"/><line style="stroke:#181818;stroke-width:0.5;" x1="7" x2="86.2334" y1="256.2969" y2="256.2969"/><text fill="#000000" font-family="sans-serif" font-size="14" lengthAdjust="spacing" textLength="59.2334" x="17" y="247.9951">Pausada</text></g><g id="Abandonada"><rect fill="#F1F1F1" height="50" rx="12.5" ry="12.5" style="stroke:#181818;stroke-width:0.5;" width="108.2861" x="22.5" y="390"/><line style="stroke:#181818;stroke-width:0.5;" x1="22.5" x2="130.7861" y1="416.2969" y2="416.2969"/><text fill="#000000" font-family="sans-serif" font-size="14" lengthAdjust="spacing" textLength="88.2861" x="32.5" y="407.9951">Abandonada</text></g><g id="Finalizada"><rect fill="#F1F1F1" height="50" rx="12.5" ry="12.5" style="stroke:#181818;stroke-width:0.5;" width="90.5674" x="290" y="310"/><line style="stroke:#181818;stroke-width:0.5;" x1="290" x2="380.5674" y1="336.2969" y2="336.2969"/><text fill="#000000" font-family="sans-serif" font-size="14" lengthAdjust="spacing" textLength="70.5674" x="300" y="327.9951">Finalizada</text></g><ellipse cx="205.5" cy="528" fill="none" rx="11" ry="11" style="stroke:#222222;stroke-width:1;"/><ellipse cx="205.5" cy="528" fill="#222222" rx="6" ry="6" style="stroke:#222222;stroke-width:1;"/><!--link *start* to EnCurso--><g class="link" data-entity-1=".start." data-entity-2="EnCurso" data-source-line="2" data-uid="lnk4" id="link_.start._EnCurso"><path d="M194.5,26 C194.5,42.63 194.5,72.66 194.5,96.87" fill="none" id="*start*-to-EnCurso" style="stroke:#181818;stroke-width:1;"/><polygon fill="#181818" points="194.5,102.87,198.5,93.87,194.5,97.87,190.5,93.87,194.5,102.87" style="stroke:#181818;stroke-width:1;"/><text fill="#000000" font-family="sans-serif" font-size="13" lengthAdjust="spacing" textLength="130.9902" x="195.5" y="69.0669">usuario pulsa Iniciar</text></g><!--link EnCurso to EnCurso--><g class="link" data-entity-1="EnCurso" data-entity-2="EnCurso" data-source-line="4" data-uid="lnk5" id="link_EnCurso_EnCurso"><path d="M233.71,116.63 C252.23,115.31 268.5,119.1 268.5,128 C268.5,136.9 258.2148,141.1166 239.6948,139.7966" fill="none" id="EnCurso-to-EnCurso" style="stroke:#181818;stroke-width:1;"/><polygon fill="#181818" points="233.71,139.37,242.4029,143.9997,238.6973,139.7255,242.9716,136.02,233.71,139.37" style="stroke:#181818;stroke-width:1;"/><text fill="#000000" font-family="sans-serif" font-size="13" lengthAdjust="spacing" textLength="217.0962" x="274.5" y="132.5669">usuario responde (acierto / error)</text></g><!--link EnCurso to Pausada--><g class="link" data-entity-1="EnCurso" data-entity-2="Pausada" data-source-line="6" data-uid="lnk7" id="link_EnCurso_Pausada"><path d="M155.29,129.07 C115.07,131.51 54.3,142.26 24.5,183 C14.44,196.75 17.6443,209.9742 25.9743,224.6242" fill="none" id="EnCurso-to-Pausada" style="stroke:#181818;stroke-width:1;"/><polygon fill="#181818" points="28.94,229.84,27.9686,220.0392,26.4686,225.4935,21.0142,223.9934,28.94,229.84" style="stroke:#181818;stroke-width:1;"/><text fill="#000000" font-family="sans-serif" font-size="13" lengthAdjust="spacing" textLength="125.0488" x="25.5" y="196.0669">usuario interrumpe</text></g><!--link Pausada to EnCurso--><g class="link" data-entity-1="Pausada" data-entity-2="EnCurso" data-source-line="8" data-uid="lnk8" id="link_Pausada_EnCurso"><path d="M86.1,241.13 C108.52,232.31 135.91,218.78 155.5,200 C169.1,186.96 176.7674,173.6267 183.2574,158.6267" fill="none" id="Pausada-to-EnCurso" style="stroke:#181818;stroke-width:1;"/><polygon fill="#181818" points="185.64,153.12,178.3951,159.7916,183.6545,157.7089,185.7373,162.9684,185.64,153.12" style="stroke:#181818;stroke-width:1;"/><text fill="#000000" font-family="sans-serif" font-size="13" lengthAdjust="spacing" textLength="99.2837" x="170.5" y="196.0669">usuario retoma</text></g><!--link Pausada to Abandonada--><g class="link" data-entity-1="Pausada" data-entity-2="Abandonada" data-source-line="9" data-uid="lnk10" id="link_Pausada_Abandonada"><path d="M37.85,280.19 C31.52,301.69 25.48,333.7 34.5,360 C38.24,370.9 41.3509,376.6624 48.5309,385.3624" fill="none" id="Pausada-to-Abandonada" style="stroke:#181818;stroke-width:1;"/><polygon fill="#181818" points="52.35,389.99,49.7064,380.5026,49.1674,386.1337,43.5363,385.5947,52.35,389.99" style="stroke:#181818;stroke-width:1;"/><text fill="#000000" font-family="sans-serif" font-size="13" lengthAdjust="spacing" textLength="236.9326" x="35.5" y="339.5669">tiempo de espera agotado (timeout)</text></g><!--link EnCurso to Finalizada--><g class="link" data-entity-1="EnCurso" data-entity-2="Finalizada" data-source-line="11" data-uid="lnk12" id="link_EnCurso_Finalizada"><path d="M233.6,147.19 C249.31,156.12 266.51,168.17 278.5,183 C309.43,221.23 323.5308,272.1331 330.1008,304.0631" fill="none" id="EnCurso-to-Finalizada" style="stroke:#181818;stroke-width:1;"/><polygon fill="#181818" points="331.31,309.94,333.4141,300.3185,330.3023,305.0426,325.5782,301.9308,331.31,309.94" style="stroke:#181818;stroke-width:1;"/><text fill="#000000" font-family="sans-serif" font-size="13" lengthAdjust="spacing" textLength="140.6387" x="289.5" y="196.0669">actividad completada</text></g><!--link Finalizada to *end*--><g class="link" data-entity-1="Finalizada" data-entity-2=".end." data-source-line="13" data-uid="lnk14" id="link_Finalizada_.end."><path d="M337.34,360.14 C338.48,392.69 335.64,450.71 305.5,487 C282.44,514.76 243.2648,522.6646 222.4548,525.2346" fill="none" id="Finalizada-to-*end*" style="stroke:#181818;stroke-width:1;"/><polygon fill="#181818" points="216.5,525.97,225.9224,528.8367,221.4623,525.3572,224.9419,520.8971,216.5,525.97" style="stroke:#181818;stroke-width:1;"/><text fill="#000000" font-family="sans-serif" font-size="13" lengthAdjust="spacing" textLength="141.1401" x="337.5" y="419.5669">resultados guardados</text></g><!--link Abandonada to *end*--><g class="link" data-entity-1="Abandonada" data-entity-2=".end." data-source-line="14" data-uid="lnk15" id="link_Abandonada_.end."><path d="M77.81,440.09 C79.84,455.26 84.76,474.31 96.5,487 C123.2,515.85 166.5004,523.3565 188.4604,525.5765" fill="none" id="Abandonada-to-*end*" style="stroke:#181818;stroke-width:1;"/><polygon fill="#181818" points="194.43,526.18,185.878,521.2951,189.4554,525.6771,185.0733,529.2545,194.43,526.18" style="stroke:#181818;stroke-width:1;"/><text fill="#000000" font-family="sans-serif" font-size="13" lengthAdjust="spacing" textLength="203.9438" x="97.5" y="483.0669">resultados parciales guardados</text></g><!--SRC=[TP3DIWCn58NtUOfBDrQXkEz263fJ69Y5Y-96H8x9fLp8924_Bdmj7y4NCw4MfgNk0lc-avDpHnCeSPAVRqU84Kw3T84pdjXIIGLHF8LY4sWrEj62k29sP441BiFMGpySkcaQthlTONmP-wvNhmzljDayqU1s9IPFswkeloIbpi1jE78AtXccDRHmp9uUYMFqyVxIV4P9C5YOud85onnOgVFjVszaF-C2wZxQ0EwKc8NduAcMg6KuWd3q6NMVTPQPVSbNNVRYOENh94Dd-HG3GzhFmN8LeTG2QKORQzl-McmBJdIipKmxgKMJcsH0h3jQNZY_]--></g></svg>
