<svg xmlns="http://www.w3.org/2000/svg" xmlns:xlink="http://www.w3.org/1999/xlink" contentStyleType="text/css" data-diagram-type="DESCRIPTION" height="912px" preserveAspectRatio="none" style="width:364px;height:912px;background:#FFFFFF;" version="1.1" viewBox="0 0 364 912" width="364px" zoomAndPan="magnify"><defs/><g><!--cluster Sistema_CAA--><g class="cluster" data-entity="Sistema_CAA" data-source-line="5" data-uid="ent0003" id="cluster_Sistema_CAA"><rect fill="none" height="899" rx="2.5" ry="2.5" style="stroke:#181818;stroke-width:1;" width="263" x="95" y="7"/><text fill="#000000" font-family="sans-serif" font-size="14" font-weight="bold" lengthAdjust="spacing" textLength="102.3818" x="175.3091" y="21.9951">Sistema_CAA</text></g><!--cluster Gesti?n de pacientes--><g class="cluster" data-entity="Gesti.n de pacientes" data-source-line="8" data-uid="ent0004" id="cluster_Gesti.n de pacientes"><path d="M122,50 L289.209,50 A3.75,3.75 0 0 1 291.709,52.5 L298.709,72.2969 L331,72.2969 A2.5,2.5 0 0 1 333.5,74.7969 L333.5,347.5 A2.5,2.5 0 0 1 331,350 L122,350 A2.5,2.5 0 0 1 119.5,347.5 L119.5,52.5 A2.5,2.5 0 0 1 122,50" fill="none" style="stroke:#000000;stroke-width:1.5;"/><line style="stroke:#000000;stroke-width:1.5;" x1="119.5" x2="298.709" y1="72.2969" y2="72.2969"/><text fill="#000000" font-family="sans-serif" font-size="14" font-weight="bold" lengthAdjust="spacing" textLength="166.209" x="123.5" y="64.9951">Gesti&#243;n de pacientes</text></g><!--cluster Gesti?n de actividades--><g class="cluster" data-entity="Gesti.n de actividades" data-source-line="16" data-uid="ent0013" id="cluster_Gesti.n de actividades"><path d="M121.5,374 L302.6406,374 A3.75,3.75 0 0 1 305.1406,376.5 L312.1406,396.2969 L331.5,396.2969 A2.5,2.5 0 0 1 334,398.7969 L334,879.5 A2.5,2.5 0 0 1 331.5,882 L121.5,882 A2.5,2.5 0 0 1 119,879.5 L119,376.5 A2.5,2.5 0 0 1 121.5,374" fill="none" style="stroke:#000000;stroke-width:1.5;"/><line style="stroke:#000000;stroke-width:1.5;" x1="119" x2="312.1406" y1="396.2969" y2="396.2969"/><text fill="#000000" font-family="sans-serif" font-size="14" font-weight="bold" lengthAdjust="spacing" textLength="180.1406" x="123" y="388.9951">Gesti&#243;n de actividades</text></g><!--entity Crear paciente--><g class="entity" data-entity="Crear paciente" data-source-line="9" data-uid="ent0005" id="entity_Crear paciente"><ellipse cx="226.3914" cy="101.1783" fill="#F1F1F1" rx="68.8914" ry="16.1783" style="stroke:#181818;stroke-width:0.5;"/><text fill="#000000" font-family="sans-serif" font-size="14" lengthAdjust="spacing" textLength="103.5713" x="174.6058" y="105.8267">Crear paciente</text></g><!--entity Editar paciente--><g class="entity" data-entity="Editar paciente" data-source-line="10" data-uid="ent0007" id="entity_Editar paciente"><ellipse cx="226.5635" cy="168.9127" fill="#F1F1F1" rx="70.0635" ry="16.4127" style="stroke:#181818;stroke-width:0.5;"/><text fill="#000000" font-family="sans-serif" font-size="14" lengthAdjust="spacing" textLength="106.5381" x="173.2945" y="173.5611">Editar paciente</text></g><!--entity Consultar paciente--><g class="entity" data-entity="Consultar paciente" data-source-line="11" data-uid="ent0009" id="entity_Consultar paciente"><ellipse cx="226.6418" cy="239.0284" fill="#F1F1F1" rx="80.6418" ry="18.5284" style="stroke:#181818;stroke-width:0.5;"/><text fill="#000000" font-family="sans-serif" font-size="14" lengthAdjust="spacing" textLength="132.1865" x="160.5485" y="243.6768">Consultar paciente</text></g><!--entity Ver progreso paciente--><g class="entity" data-entity="Ver progreso paciente" data-source-line="12" data-uid="ent0011" id="entity_Ver progreso paciente"><ellipse cx="226.4161" cy="313.0832" fill="#F1F1F1" rx="90.9161" ry="20.5832" style="stroke:#181818;stroke-width:0.5;"/><text fill="#000000" font-family="sans-serif" font-size="14" lengthAdjust="spacing" textLength="155.8115" x="148.5103" y="317.7316">Ver progreso paciente</text></g><!--entity Crear actividad--><g class="entity" data-entity="Crear actividad" data-source-line="17" data-uid="ent0014" id="entity_Crear actividad"><ellipse cx="226.2918" cy="425.9584" fill="#F1F1F1" rx="70.2918" ry="16.4584" style="stroke:#181818;stroke-width:0.5;"/><text fill="#000000" font-family="sans-serif" font-size="14" lengthAdjust="spacing" textLength="107.1123" x="172.7357" y="430.6068">Crear actividad</text></g><!--entity Editar actividad--><g class="entity" data-entity="Editar actividad" data-source-line="18" data-uid="ent0016" id="entity_Editar actividad"><ellipse cx="226.4783" cy="494.1957" fill="#F1F1F1" rx="71.4783" ry="16.6957" style="stroke:#181818;stroke-width:0.5;"/><text fill="#000000" font-family="sans-serif" font-size="14" lengthAdjust="spacing" textLength="110.0791" x="171.4388" y="498.8441">Editar actividad</text></g><!--entity Ver actividad--><g class="entity" data-entity="Ver actividad" data-source-line="19" data-uid="ent0018" id="entity_Ver actividad"><ellipse cx="226.6656" cy="560.8331" fill="#F1F1F1" rx="64.6656" ry="15.3331" style="stroke:#181818;stroke-width:0.5;"/><text fill="#000000" font-family="sans-serif" font-size="14" lengthAdjust="spacing" textLength="92.5791" x="180.3761" y="565.4816">Ver actividad</text></g><!--entity Publicar actividad--><g class="entity" data-entity="Publicar actividad" data-source-line="20" data-uid="ent0020" id="entity_Publicar actividad"><ellipse cx="226.4588" cy="629.8918" fill="#F1F1F1" rx="77.4588" ry="17.8918" style="stroke:#181818;stroke-width:0.5;"/><text fill="#000000" font-family="sans-serif" font-size="14" lengthAdjust="spacing" textLength="124.6465" x="164.1356" y="634.5402">Publicar actividad</text></g><!--entity Archivar actividad--><g class="entity" data-entity="Archivar actividad" data-source-line="21" data-uid="ent0022" id="entity_Archivar actividad"><ellipse cx="226.4658" cy="701.0932" fill="#F1F1F1" rx="78.4658" ry="18.0932" style="stroke:#181818;stroke-width:0.5;"/><text fill="#000000" font-family="sans-serif" font-size="14" lengthAdjust="spacing" textLength="127.0459" x="162.9429" y="705.7416">Archivar actividad</text></g><!--entity Asignar actividad--><g class="entity" data-entity="Asignar actividad" data-source-line="22" data-uid="ent0024" id="entity_Asignar actividad"><ellipse cx="226.6422" cy="772.1284" fill="#F1F1F1" rx="76.1422" ry="17.6284" style="stroke:#181818;stroke-width:0.5;"/><text fill="#000000" font-family="sans-serif" font-size="14" lengthAdjust="spacing" textLength="121.4883" x="165.898" y="776.7769">Asignar actividad</text></g><!--entity Recomendar actividad--><g class="entity" data-entity="Recomendar actividad" data-source-line="23" data-uid="ent0026" id="entity_Recomendar actividad"><ellipse cx="226.7015" cy="845.2403" fill="#F1F1F1" rx="91.7015" ry="20.7403" style="stroke:#181818;stroke-width:0.5;"/><text fill="#000000" font-family="sans-serif" font-size="14" lengthAdjust="spacing" textLength="157.582" x="147.9104" y="849.8887">Recomendar actividad</text></g><!--entity Logopeda--><g class="entity" data-entity="Logopeda" data-source-line="3" data-uid="ent0002" id="entity_Logopeda"><ellipse cx="40.3916" cy="464.5" fill="#F1F1F1" rx="8" ry="8" style="stroke:#181818;stroke-width:0.5;"/><path d="M40.3916,472.5 L40.3916,499.5 M27.3916,480.5 L53.3916,480.5 M40.3916,499.5 L27.3916,514.5 M40.3916,499.5 L53.3916,514.5" fill="none" style="stroke:#181818;stroke-width:0.5;"/><text fill="#000000" font-family="sans-serif" font-size="14" lengthAdjust="spacing" textLength="68.7832" x="6" y="528.9951">Logopeda</text></g><!--link Logopeda to Crear paciente--><g class="link" data-entity-1="Logopeda" data-entity-2="Crear paciente" data-source-line="9" data-uid="lnk6" id="link_Logopeda_Crear paciente"><path d="M41.08,455.78 C40.97,373.19 45.35,181.72 87,135 C104.63,115.22 131.72,106.04 157.28,102.05" fill="none" id="Logopeda-Crear paciente" style="stroke:#181818;stroke-width:1;"/></g><!--link Logopeda to Editar paciente--><g class="link" data-entity-1="Logopeda" data-entity-2="Editar paciente" data-source-line="10" data-uid="lnk8" id="link_Logopeda_Editar paciente"><path d="M42.37,455.86 C44.76,385.53 53.72,239.26 87,203 C104.66,183.76 131.29,174.6 156.49,170.48" fill="none" id="Logopeda-Editar paciente" style="stroke:#181818;stroke-width:1;"/></g><!--link Logopeda to Consultar paciente--><g class="link" data-entity-1="Logopeda" data-entity-2="Consultar paciente" data-source-line="11" data-uid="lnk10" id="link_Logopeda_Consultar paciente"><path d="M44.64,455.64 C49.99,399.94 62.7,300.53 87,275 C103.01,258.17 125.81,248.84 148.29,243.76" fill="none" id="Logopeda-Consultar paciente" style="stroke:#181818;stroke-width:1;"/></g><!--link Logopeda to Ver progreso paciente--><g class="link" data-entity-1="Logopeda" data-entity-2="Ver progreso paciente" data-source-line="12" data-uid="lnk12" id="link_Logopeda_Ver progreso paciente"><path d="M52.38,455.73 C59.65,435.33 70.88,410.83 87,393 C112.42,364.89 150.11,344.01 179.76,330.64" fill="none" id="Logopeda-Ver progreso paciente" style="stroke:#181818;stroke-width:1;"/></g><!--link Logopeda to Crear actividad--><g class="link" data-entity-1="Logopeda" data-entity-2="Crear actividad" data-source-line="17" data-uid="lnk15" id="link_Logopeda_Crear actividad"><path d="M75.1,466.64 C78.98,464.17 82.99,461.9 87,460 C112.07,448.16 141.72,440.17 167.13,434.93" fill="none" id="Logopeda-Crear actividad" style="stroke:#181818;stroke-width:1;"/></g><!--link Logopeda to Editar actividad--><g class="link" data-entity-1="Logopeda" data-entity-2="Editar actividad" data-source-line="18" data-uid="lnk17" id="link_Logopeda_Editar actividad"><path d="M75.25,494 C97.55,494 127.62,494 155,494" fill="none" id="Logopeda-Editar actividad" style="stroke:#181818;stroke-width:1;"/></g><!--link Logopeda to Ver actividad--><g class="link" data-entity-1="Logopeda" data-entity-2="Ver actividad" data-source-line="19" data-uid="lnk19" id="link_Logopeda_Ver actividad"><path d="M75.09,521.38 C78.97,523.85 82.98,526.12 87,528 C113.19,540.26 144.37,548.21 170.51,553.22" fill="none" id="Logopeda-Ver actividad" style="stroke:#181818;stroke-width:1;"/></g><!--link Logopeda to Publicar actividad--><g class="link" data-entity-1="Logopeda" data-entity-2="Publicar actividad" data-source-line="20" data-uid="lnk21" id="link_Logopeda_Publicar actividad"><path d="M50.23,532.22 C56.94,553.29 68.31,578.29 87,594 C105.64,609.67 130.3,618.61 153.65,623.69" fill="none" id="Logopeda-Publicar actividad" style="stroke:#181818;stroke-width:1;"/></g><!--link Logopeda to Archivar actividad--><g class="link" data-entity-1="Logopeda" data-entity-2="Archivar actividad" data-source-line="21" data-uid="lnk23" id="link_Logopeda_Archivar actividad"><path d="M41.12,532.04 C42.86,570.75 51.71,629.91 87,665 C103.91,681.82 127.62,691.08 150.64,696.1" fill="none" id="Logopeda-Archivar actividad" style="stroke:#181818;stroke-width:1;"/></g><!--link Logopeda to Asignar actividad--><g class="link" data-entity-1="Logopeda" data-entity-2="Asignar actividad" data-source-line="22" data-uid="lnk25" id="link_Logopeda_Asignar actividad"><path d="M43.79,532.36 C48.2,592.97 59.94,707.02 87,736 C103.79,753.98 128.3,763.43 152.06,768.27" fill="none" id="Logopeda-Asignar actividad" style="stroke:#181818;stroke-width:1;"/></g><!--link Logopeda to Recomendar actividad--><g class="link" data-entity-1="Logopeda" data-entity-2="Recomendar actividad" data-source-line="23" data-uid="lnk27" id="link_Logopeda_Recomendar actividad"><path d="M41.98,532.01 C43.71,606.27 51.55,766.88 87,807 C100.87,822.7 120.55,832.18 140.73,837.84" fill="none" id="Logopeda-Recomendar actividad" style="stroke:#181818;stroke-width:1;"/></g><!--SRC=[lP91QWCX58RtdkAHJTf53Y6EX84IGcR8DbXzDOzEDAZ99Wpa3ibDUeJSf2Uf0ssWBJEpQkMvyV-GtmyRV4cGF0IosmI60kf4tZ6cTF81dhprUpIAiIvGpZO85SM4ExKHdCE9CSXh2k_NSnwOowekRvS551AMN9HoKSlgC_phoKtsIhygYp2POqnqUtDWi3iaT0dZ9DVjsduz2cOpU101LRWpZxy1QIWD4yAxU6X6e3NcE7WRCFflN9jtlqGkwd9T5hpu1urz0lDNe2CPPGOLtgb-XqD8vsSeNnwU6z8Zb_2WjtGSWo9PDyAiKFiTElCJQnbhFm00]--></g></svg>