<svg xmlns="http://www.w3.org/2000/svg" xmlns:xlink="http://www.w3.org/1999/xlink" contentStyleType="text/css" data-diagram-type="DESCRIPTION" height="523px" preserveAspectRatio="none" style="width:1299px;height:523px;background:#FFFFFF;" version="1.1" viewBox="0 0 1299 523" width="1299px" zoomAndPan="magnify"><defs/><g><!--cluster registrarSesion--><g class="cluster" data-entity="registrarSesion" data-source-line="13" data-uid="ent0004" id="cluster_registrarSesion"><path d="M8.5,106 L144.0928,106 A3.75,3.75 0 0 1 146.5928,108.5 L153.5928,128.2969 L1126.5,128.2969 A2.5,2.5 0 0 1 1129,130.7969 L1129,513.5 A2.5,2.5 0 0 1 1126.5,516 L8.5,516 A2.5,2.5 0 0 1 6,513.5 L6,108.5 A2.5,2.5 0 0 1 8.5,106" fill="none" style="stroke:#000000;stroke-width:1.5;"/><line style="stroke:#000000;stroke-width:1.5;" x1="6" x2="153.5928" y1="128.2969" y2="128.2969"/><text fill="#000000" font-family="sans-serif" font-size="14" font-weight="bold" lengthAdjust="spacing" textLength="134.5928" x="10" y="120.9951">registrarSesion()</text></g><!--entity RegistrarSesionView--><g class="entity" data-entity="RegistrarSesionView" data-source-line="14" data-uid="ent0005" id="entity_RegistrarSesionView"><rect fill="#629EF9" height="36.2969" rx="2.5" ry="2.5" style="stroke:#181818;stroke-width:0.5;" width="163.6436" x="489" y="141"/><text fill="#000000" font-family="sans-serif" font-size="14" lengthAdjust="spacing" textLength="143.6436" x="499" y="163.9951">RegistrarSesionView</text></g><!--entity SesionController--><g class="entity" data-entity="SesionController" data-source-line="15" data-uid="ent0006" id="entity_SesionController"><rect fill="#B5BD68" height="36.2969" rx="2.5" ry="2.5" style="stroke:#181818;stroke-width:0.5;" width="135.2949" x="127.5" y="254"/><text fill="#000000" font-family="sans-serif" font-size="14" lengthAdjust="spacing" textLength="115.2949" x="137.5" y="276.9951">SesionController</text></g><!--entity PacienteController--><g class="entity" data-entity="PacienteController" data-source-line="16" data-uid="ent0007" id="entity_PacienteController"><rect fill="#B5BD68" height="36.2969" rx="2.5" ry="2.5" style="stroke:#181818;stroke-width:0.5;" width="149.3701" x="771.5" y="254"/><text fill="#000000" font-family="sans-serif" font-size="14" lengthAdjust="spacing" textLength="129.3701" x="781.5" y="276.9951">PacienteController</text></g><!--entity SesionRepository--><g class="entity" data-entity="SesionRepository" data-source-line="17" data-uid="ent0008" id="entity_SesionRepository"><rect fill="#F2AC4E" height="36.2969" rx="2.5" ry="2.5" style="stroke:#181818;stroke-width:0.5;" width="141.1943" x="124.5" y="367"/><text fill="#000000" font-family="sans-serif" font-size="14" lengthAdjust="spacing" textLength="121.1943" x="134.5" y="389.9951">SesionRepository</text></g><!--entity PacienteRepository--><g class="entity" data-entity="PacienteRepository" data-source-line="18" data-uid="ent0009" id="entity_PacienteRepository"><rect fill="#F2AC4E" height="36.2969" rx="2.5" ry="2.5" style="stroke:#181818;stroke-width:0.5;" width="155.2695" x="768.5" y="367"/><text fill="#000000" font-family="sans-serif" font-size="14" lengthAdjust="spacing" textLength="135.2695" x="778.5" y="389.9951">PacienteRepository</text></g><!--entity Sesion--><g class="entity" data-entity="Sesion" data-source-line="19" data-uid="ent0010" id="entity_Sesion"><rect fill="#F2AC4E" height="36.2969" rx="2.5" ry="2.5" style="stroke:#181818;stroke-width:0.5;" width="66.1221" x="162" y="464"/><text fill="#000000" font-family="sans-serif" font-size="14" lengthAdjust="spacing" textLength="46.1221" x="172" y="486.9951">Sesion</text></g><!--entity Paciente--><g class="entity" data-entity="Paciente" data-source-line="20" data-uid="ent0011" id="entity_Paciente"><rect fill="#F2AC4E" height="36.2969" rx="2.5" ry="2.5" style="stroke:#181818;stroke-width:0.5;" width="80.1973" x="806" y="464"/><text fill="#000000" font-family="sans-serif" font-size="14" lengthAdjust="spacing" textLength="60.1973" x="816" y="486.9951">Paciente</text></g><!--entity SesionesAbiertasEntrada--><g class="entity" data-entity="SesionesAbiertasEntrada" data-source-line="10" data-uid="ent0002" id="entity_SesionesAbiertasEntrada"><rect fill="#CDEBA5" height="36.2969" rx="2.5" ry="2.5" style="stroke:#181818;stroke-width:0.5;" width="149.2813" x="496.5" y="7"/><text fill="#000000" font-family="sans-serif" font-size="14" lengthAdjust="spacing" textLength="129.2813" x="506.5" y="29.9951">:Sesiones Abiertas</text></g><!--entity SesionesAbiertasSalida--><g class="entity" data-entity="SesionesAbiertasSalida" data-source-line="11" data-uid="ent0003" id="entity_SesionesAbiertasSalida"><rect fill="#CDEBA5" height="36.2969" rx="2.5" ry="2.5" style="stroke:#181818;stroke-width:0.5;" width="149.2813" x="1144.5" y="254"/><text fill="#000000" font-family="sans-serif" font-size="14" lengthAdjust="spacing" textLength="129.2813" x="1154.5" y="276.9951">:Sesiones Abiertas</text></g><!--link SesionesAbiertasEntrada to RegistrarSesionView--><g class="link" data-entity-1="SesionesAbiertasEntrada" data-entity-2="RegistrarSesionView" data-source-line="23" data-uid="lnk12" id="link_SesionesAbiertasEntrada_RegistrarSesionView"><path d="M571,43.26 C571,68.55 571,109.44 571,134.74" fill="none" id="SesionesAbiertasEntrada-to-RegistrarSesionView" style="stroke:#181818;stroke-width:1;"/><polygon fill="#181818" points="571,140.74,575,131.74,571,135.74,567,131.74,571,140.74" style="stroke:#181818;stroke-width:1;"/><text fill="#000000" font-family="sans-serif" font-size="13" lengthAdjust="spacing" textLength="108.7036" x="572" y="86.0669">registrarSesion()</text></g><!--link RegistrarSesionView to PacienteController--><g class="link" data-entity-1="RegistrarSesionView" data-entity-2="PacienteController" data-source-line="25" data-uid="lnk13" id="link_RegistrarSesionView_PacienteController"><path d="M653.21,176.37 C721.32,189.94 807,207 807,207 C807,207 820.8785,229.7659 832.4285,248.7259" fill="none" id="RegistrarSesionView-to-PacienteController" style="stroke:#181818;stroke-width:1;"/><polygon fill="#181818" points="835.55,253.85,834.2838,244.0829,832.9488,249.5799,827.4517,248.2448,835.55,253.85" style="stroke:#181818;stroke-width:1;"/><text fill="#000000" font-family="sans-serif" font-size="13" lengthAdjust="spacing" textLength="265.4399" x="818" y="220.0669">listarPacientesActivos() : List&lt;Paciente&gt;</text></g><!--link PacienteController to PacienteRepository--><g class="link" data-entity-1="PacienteController" data-entity-2="PacienteRepository" data-source-line="26" data-uid="lnk14" id="link_PacienteController_PacienteRepository"><path d="M846,290.34 C846,311.2 846,339.98 846,360.78" fill="none" id="PacienteController-to-PacienteRepository" style="stroke:#181818;stroke-width:1;"/><polygon fill="#181818" points="846,366.78,850,357.78,846,361.78,842,357.78,846,366.78" style="stroke:#181818;stroke-width:1;"/><text fill="#000000" font-family="sans-serif" font-size="13" lengthAdjust="spacing" textLength="195.0444" x="847" y="333.0669">findActivos() : List&lt;Paciente&gt;</text></g><!--link PacienteRepository to Paciente--><g class="link" data-entity-1="PacienteRepository" data-entity-2="Paciente" data-source-line="27" data-uid="lnk15" id="link_PacienteRepository_Paciente"><path d="M846,403.42 C846,420.57 846,446.58 846,463.69" fill="none" id="PacienteRepository-Paciente" style="stroke:#181818;stroke-width:1;"/></g><!--link RegistrarSesionView to SesionController--><g class="link" data-entity-1="RegistrarSesionView" data-entity-2="SesionController" data-source-line="29" data-uid="lnk16" id="link_RegistrarSesionView_SesionController"><path d="M488.79,167.47 C342.92,180.73 54,207 54,207 C54,207 54,224 54,224 C54,224 97.6879,238.5626 138.0079,252.0026" fill="none" id="RegistrarSesionView-to-SesionController" style="stroke:#181818;stroke-width:1;"/><polygon fill="#181818" points="143.7,253.9,136.4268,247.2592,138.9566,252.3189,133.8969,254.8487,143.7,253.9" style="stroke:#181818;stroke-width:1;"/><text fill="#000000" font-family="sans-serif" font-size="13" lengthAdjust="spacing" textLength="198.3579" x="55" y="220.0669">validarDatos(sesion) : boolean</text></g><!--link RegistrarSesionView to SesionController--><g class="link" data-entity-1="RegistrarSesionView" data-entity-2="SesionController" data-source-line="30" data-uid="lnk17" id="link_RegistrarSesionView_SesionController"><path d="M488.97,173.72 C406.03,187.59 290,207 290,207 C290,207 253.5759,231.5374 225.4359,250.4974" fill="none" id="RegistrarSesionView-to-SesionController-1" style="stroke:#181818;stroke-width:1;"/><polygon fill="#181818" points="220.46,253.85,230.159,252.1383,224.6066,251.0561,225.6888,245.5038,220.46,253.85" style="stroke:#181818;stroke-width:1;"/><text fill="#000000" font-family="sans-serif" font-size="13" lengthAdjust="spacing" textLength="507.4063" x="291" y="220.0669">guardarSesion(pacienteId, fecha, tipo, observaciones, aciertos, errores) : void</text></g><!--link SesionController to SesionRepository--><g class="link" data-entity-1="SesionController" data-entity-2="SesionRepository" data-source-line="31" data-uid="lnk18" id="link_SesionController_SesionRepository"><path d="M195,290.34 C195,311.2 195,339.98 195,360.78" fill="none" id="SesionController-to-SesionRepository" style="stroke:#181818;stroke-width:1;"/><polygon fill="#181818" points="195,366.78,199,357.78,195,361.78,191,357.78,195,366.78" style="stroke:#181818;stroke-width:1;"/><text fill="#000000" font-family="sans-serif" font-size="13" lengthAdjust="spacing" textLength="122.0781" x="196" y="333.0669">save(sesion) : void</text></g><!--link SesionRepository to Sesion--><g class="link" data-entity-1="SesionRepository" data-entity-2="Sesion" data-source-line="32" data-uid="lnk19" id="link_SesionRepository_Sesion"><path d="M195,403.42 C195,420.57 195,446.58 195,463.69" fill="none" id="SesionRepository-Sesion" style="stroke:#181818;stroke-width:1;"/></g><!--link RegistrarSesionView to SesionesAbiertasSalida--><g class="link" data-entity-1="RegistrarSesionView" data-entity-2="SesionesAbiertasSalida" data-source-line="34" data-uid="lnk20" id="link_RegistrarSesionView_SesionesAbiertasSalida"><path d="M653.27,167.42 C800.08,180.67 1092,207 1092,207 C1092,207 1141.992,232.1896 1179.612,251.1496" fill="none" id="RegistrarSesionView-to-SesionesAbiertasSalida" style="stroke:#181818;stroke-width:1;stroke-dasharray:7,7;"/><polygon fill="#181818" points="1184.97,253.85,1178.7333,246.2275,1180.505,251.5997,1175.1328,253.3715,1184.97,253.85" style="stroke:#181818;stroke-width:1;"/><text fill="#000000" font-family="sans-serif" font-size="13" lengthAdjust="spacing" textLength="152.1978" x="1124" y="220.0669">abrirSesionesAbiertas()</text></g><!--SRC=[rPF1Qjj048Rl-nI3UuWDSWYX3eqf1iLMgA6qnKfxBIDfuYnHTiNiHi6KlaClUP8yGj-aJv9HRDMA8v6Md0AwQFz_lj7yizg3FxU_NjsZzc2QVHqUZ00MjDJECp8uSlhtdH5jHYwZCSHHFF_yAOg_XoVpQ74MnY9zm5HZk_GgWr3ANMfJ8ECLvDgGNnK4XSrNrOjIJAb7iym9tandqKauWjuubfoi8GTXeeazkXu0e8Fwl3wEZCIQuOiOCUPQ4Ah0z1AN15nlQssiIdexP_r13tuemK6ZyT7XSNHwl5tsslfDqyskCnabsT6xpOTChSnWyvoum_P5hWCPJzt6qyDm-ZRQy1PKMAUzvLM7hUOzQrppdg6edqfrR0M6mqbR73269tagrMQi04_7b_fShCYrvCBKwzAw_a2aZoAzhvM9QYb_XDsc8BNdscJ_m6hK26iRHUSCkvkMHCTGFjmxdg6NRkx1KVLChCq9pV-nbjV8sTyqYyq7pRC0pYczm02yBcm0Dd74fQZLjWAeR2pT0o1co-Ig_gNLcMffqcZUd5yg79RK6A01U6IiejfSgTRXzlSd7V-cG35XpRjgVt0F]--></g></svg>