<svg xmlns="http://www.w3.org/2000/svg" xmlns:xlink="http://www.w3.org/1999/xlink" contentStyleType="text/css" data-diagram-type="DESCRIPTION" height="523px" preserveAspectRatio="none" style="width:1011px;height:523px;background:#FFFFFF;" version="1.1" viewBox="0 0 1011 523" width="1011px" zoomAndPan="magnify"><defs/><g><!--cluster publicarActividad--><g class="cluster" data-entity="publicarActividad" data-source-line="13" data-uid="ent0004" id="cluster_publicarActividad"><path d="M8.5,106 L160.5947,106 A3.75,3.75 0 0 1 163.0947,108.5 L170.0947,128.2969 L818.5,128.2969 A2.5,2.5 0 0 1 821,130.7969 L821,513.5 A2.5,2.5 0 0 1 818.5,516 L8.5,516 A2.5,2.5 0 0 1 6,513.5 L6,108.5 A2.5,2.5 0 0 1 8.5,106" fill="none" style="stroke:#000000;stroke-width:1.5;"/><line style="stroke:#000000;stroke-width:1.5;" x1="6" x2="170.0947" y1="128.2969" y2="128.2969"/><text fill="#000000" font-family="sans-serif" font-size="14" font-weight="bold" lengthAdjust="spacing" textLength="151.0947" x="10" y="120.9951">publicarActividad()</text></g><!--entity PublicarActividadView--><g class="entity" data-entity="PublicarActividadView" data-source-line="14" data-uid="ent0005" id="entity_PublicarActividadView"><rect fill="#629EF9" height="36.2969" rx="2.5" ry="2.5" style="stroke:#181818;stroke-width:0.5;" width="174.7246" x="404.5" y="141"/><text fill="#000000" font-family="sans-serif" font-size="14" lengthAdjust="spacing" textLength="154.7246" x="414.5" y="163.9951">PublicarActividadView</text></g><!--entity ActividadController--><g class="entity" data-entity="ActividadController" data-source-line="15" data-uid="ent0006" id="entity_ActividadController"><rect fill="#B5BD68" height="36.2969" rx="2.5" ry="2.5" style="stroke:#181818;stroke-width:0.5;" width="154.3535" x="279" y="254"/><text fill="#000000" font-family="sans-serif" font-size="14" lengthAdjust="spacing" textLength="134.3535" x="289" y="276.9951">ActividadController</text></g><!--entity ActividadRepository--><g class="entity" data-entity="ActividadRepository" data-source-line="16" data-uid="ent0007" id="entity_ActividadRepository"><rect fill="#F2AC4E" height="36.2969" rx="2.5" ry="2.5" style="stroke:#181818;stroke-width:0.5;" width="160.2529" x="225" y="367"/><text fill="#000000" font-family="sans-serif" font-size="14" lengthAdjust="spacing" textLength="140.2529" x="235" y="389.9951">ActividadRepository</text></g><!--entity Actividad--><g class="entity" data-entity="Actividad" data-source-line="17" data-uid="ent0008" id="entity_Actividad"><rect fill="#F2AC4E" height="36.2969" rx="2.5" ry="2.5" style="stroke:#181818;stroke-width:0.5;" width="85.1807" x="262.5" y="464"/><text fill="#000000" font-family="sans-serif" font-size="14" lengthAdjust="spacing" textLength="65.1807" x="272.5" y="486.9951">Actividad</text></g><!--entity ActividadAbierta--><g class="entity" data-entity="ActividadAbierta" data-source-line="10" data-uid="ent0002" id="entity_ActividadAbierta"><rect fill="#CDEBA5" height="36.2969" rx="2.5" ry="2.5" style="stroke:#181818;stroke-width:0.5;" width="145.1387" x="419.5" y="7"/><text fill="#000000" font-family="sans-serif" font-size="14" lengthAdjust="spacing" textLength="125.1387" x="429.5" y="29.9951">:Actividad Abierta</text></g><!--entity ActividadesAbiertas--><g class="entity" data-entity="ActividadesAbiertas" data-source-line="11" data-uid="ent0003" id="entity_ActividadesAbiertas"><rect fill="#CDEBA5" height="36.2969" rx="2.5" ry="2.5" style="stroke:#181818;stroke-width:0.5;" width="168.3398" x="837" y="254"/><text fill="#000000" font-family="sans-serif" font-size="14" lengthAdjust="spacing" textLength="148.3398" x="847" y="276.9951">:Actividades Abiertas</text></g><!--link ActividadAbierta to PublicarActividadView--><g class="link" data-entity-1="ActividadAbierta" data-entity-2="PublicarActividadView" data-source-line="20" data-uid="lnk9" id="link_ActividadAbierta_PublicarActividadView"><path d="M492,43.26 C492,68.55 492,109.44 492,134.74" fill="none" id="ActividadAbierta-to-PublicarActividadView" style="stroke:#181818;stroke-width:1;"/><polygon fill="#181818" points="492,140.74,496,131.74,492,135.74,488,131.74,492,140.74" style="stroke:#181818;stroke-width:1;"/><text fill="#000000" font-family="sans-serif" font-size="13" lengthAdjust="spacing" textLength="123.0938" x="493" y="86.0669">publicarActividad()</text></g><!--link PublicarActividadView to ActividadController--><g class="link" data-entity-1="PublicarActividadView" data-entity-2="ActividadController" data-source-line="22" data-uid="lnk10" id="link_PublicarActividadView_ActividadController"><path d="M404.42,169.4 C276.6,183.11 54,207 54,207 C54,207 54,224 54,224 C54,224 183.2114,244.1071 272.6914,258.0371" fill="none" id="PublicarActividadView-to-ActividadController" style="stroke:#181818;stroke-width:1;"/><polygon fill="#181818" points="278.62,258.96,270.3424,253.6232,273.6795,258.1909,269.1118,261.528,278.62,258.96" style="stroke:#181818;stroke-width:1;"/><text fill="#000000" font-family="sans-serif" font-size="13" lengthAdjust="spacing" textLength="257.5435" x="55" y="220.0669">cargarActividad(actividadId) : Actividad</text></g><!--link PublicarActividadView to ActividadController--><g class="link" data-entity-1="PublicarActividadView" data-entity-2="ActividadController" data-source-line="26" data-uid="lnk13" id="link_PublicarActividadView_ActividadController"><path d="M441.42,177.1 C401.68,190.54 353,207 353,207 C353,207 353,224 353,224 C353,224 353.6563,234.3623 354.5163,247.7823" fill="none" id="PublicarActividadView-to-ActividadController-1" style="stroke:#181818;stroke-width:1;"/><polygon fill="#181818" points="354.9,253.77,358.3162,244.5326,354.5802,248.7802,350.3326,245.0442,354.9,253.77" style="stroke:#181818;stroke-width:1;"/><text fill="#000000" font-family="sans-serif" font-size="13" lengthAdjust="spacing" textLength="231.4927" x="354" y="220.0669">validarCampos(actividad) : boolean</text></g><!--link PublicarActividadView to ActividadController--><g class="link" data-entity-1="PublicarActividadView" data-entity-2="ActividadController" data-source-line="27" data-uid="lnk14" id="link_PublicarActividadView_ActividadController"><path d="M527.66,177.1 C555.68,190.54 590,207 590,207 C590,207 590,224 590,224 C590,224 507.3125,240.6085 439.1525,254.2985" fill="none" id="PublicarActividadView-to-ActividadController-2" style="stroke:#181818;stroke-width:1;"/><polygon fill="#181818" points="433.27,255.48,442.8815,257.6294,438.1721,254.4954,441.3061,249.7861,433.27,255.48" style="stroke:#181818;stroke-width:1;"/><text fill="#000000" font-family="sans-serif" font-size="13" lengthAdjust="spacing" textLength="174.4082" x="591" y="220.0669">publicar(actividadId) : void</text></g><!--link ActividadController to ActividadRepository--><g class="link" data-entity-1="ActividadController" data-entity-2="ActividadRepository" data-source-line="23" data-uid="lnk11" id="link_ActividadController_ActividadRepository"><path d="M291.12,290.03 C239.9,303.49 177,320 177,320 C177,320 177,337 177,337 C177,337 216.1977,351.3918 252.7977,364.8318" fill="none" id="ActividadController-to-ActividadRepository" style="stroke:#181818;stroke-width:1;"/><polygon fill="#181818" points="258.43,366.9,251.3604,360.0428,253.7364,365.1765,248.6028,367.5525,258.43,366.9" style="stroke:#181818;stroke-width:1;"/><text fill="#000000" font-family="sans-serif" font-size="13" lengthAdjust="spacing" textLength="208.3745" x="178" y="333.0669">findById(actividadId) : Actividad</text></g><!--link ActividadController to ActividadRepository--><g class="link" data-entity-1="ActividadController" data-entity-2="ActividadRepository" data-source-line="28" data-uid="lnk15" id="link_ActividadController_ActividadRepository"><path d="M368.83,290.23 C378.82,303.65 391,320 391,320 C391,320 391,337 391,337 C391,337 366.3447,350.4721 341.7947,363.8921" fill="none" id="ActividadController-to-ActividadRepository-1" style="stroke:#181818;stroke-width:1;"/><polygon fill="#181818" points="336.53,366.77,346.3457,365.963,340.9173,364.3717,342.5085,358.9433,336.53,366.77" style="stroke:#181818;stroke-width:1;"/><text fill="#000000" font-family="sans-serif" font-size="13" lengthAdjust="spacing" textLength="298.4097" x="392" y="333.0669">updateEstado(actividadId, DISPONIBLE) : void</text></g><!--link ActividadRepository to Actividad--><g class="link" data-entity-1="ActividadRepository" data-entity-2="Actividad" data-source-line="24" data-uid="lnk12" id="link_ActividadRepository_Actividad"><path d="M305,403.42 C305,420.57 305,446.58 305,463.69" fill="none" id="ActividadRepository-Actividad" style="stroke:#181818;stroke-width:1;"/></g><!--link PublicarActividadView to ActividadesAbiertas--><g class="link" data-entity-1="PublicarActividadView" data-entity-2="ActividadesAbiertas" data-source-line="30" data-uid="lnk16" id="link_PublicarActividadView_ActividadesAbiertas"><path d="M579.68,174.61 C662.46,188.41 774,207 774,207 C774,207 832.5587,232.495 876.1087,251.455" fill="none" id="PublicarActividadView-to-ActividadesAbiertas" style="stroke:#181818;stroke-width:1;stroke-dasharray:7,7;"/><polygon fill="#181818" points="881.61,253.85,874.9548,246.5899,877.0256,251.8541,871.7614,253.925,881.61,253.85" style="stroke:#181818;stroke-width:1;"/><text fill="#000000" font-family="sans-serif" font-size="13" lengthAdjust="spacing" textLength="169.895" x="811" y="220.0669">abrirActividadesAbiertas()</text></g><!--SRC=[rLJBQi905DtFLrpIXGfLYbIfBeJ9GneeLQ9rMsuoKncCcJ295YdzXsxwW_sIJefvQDE7IqCscVEuvzwPIGC-tj_ExYKDiDX3-weBCDtueGXG0GQfs0g6J8CsJnWV0hNcxiArgVr8JTVnvXIQF4cHIJ0ddaVjYTVIv5iC15R8pYodppHwbkCX95c9A4Q5QmX5nDDTp26MuIxx84Jn8CLe6NAui6p7f3qmXZGV7r1VS9MY0Tc32HJ87lXTpfFS834EvJp90K9Y35Qur9dskrTMrmhZssgpPS0BoV9KQlUx0sSyA0v0GLu8_dpCzNi-wz-KMImPfKg68LV7p76NMjTEoVHuB1EHIhNxYqbU2JcU5RJRe_g4C8IQDWcf9sSsDU6rYQOkgnR5DN1PIyDbkZev71gNlMhbauYOkNF_urZHPOuLoidjR37KQyh2jROiIsU5VIb3Zj79blcOZnlPId7wL3OnmvGxNt-Hgk4bsEviEhbtpJkdCFyXQgSpghiLMeM-4ge6QhO-0G00]--></g></svg>