<svg xmlns="http://www.w3.org/2000/svg" xmlns:xlink="http://www.w3.org/1999/xlink" contentStyleType="text/css" data-diagram-type="SALT" height="190px" preserveAspectRatio="none" style="width:285px;height:190px;background:#FFFFFF;" version="1.1" viewBox="0 0 285 190" width="285px" zoomAndPan="magnify"><defs/><g><text fill="#000000" font-family="sans-serif" font-size="12" lengthAdjust="spacing" textLength="66.8086" x="7" y="18.1387">&#8592; Cancelar</text><text fill="#000000" font-family="sans-serif" font-size="12" font-weight="bold" lengthAdjust="spacing" textLength="118.1426" x="75.8086" y="18.1387">Asignar actividad</text><rect fill="#EEEEEE" height="17.9688" rx="5" ry="5" style="stroke:#000000;stroke-width:2.5;" width="76" x="198.4512" y="9.5"/><text fill="#000000" font-family="sans-serif" font-size="12" lengthAdjust="spacing" textLength="59.7949" x="206.5537" y="22.6387">Confirmar</text><line style="stroke:#AAAAAA;stroke-width:1;" x1="6" x2="278.9512" y1="35.4688" y2="35.4688"/><line style="stroke:#AAAAAA;stroke-width:1;" x1="6" x2="278.9512" y1="37.4688" y2="37.4688"/><text fill="#000000" font-family="sans-serif" font-size="12" lengthAdjust="spacing" textLength="61.4121" x="6" y="52.1074">Paciente *</text><rect fill="#EEEEEE" height="16.9688" style="stroke:#000000;stroke-width:1;" width="255" x="6" y="56.9375"/><text fill="#000000" font-family="sans-serif" font-size="12" lengthAdjust="spacing" textLength="65.8535" x="8" y="70.0762">Ana Garc&#237;a</text><line style="stroke:#000000;stroke-width:1;" x1="250" x2="250" y1="56.9375" y2="73.9063"/><polygon fill="#000000" points="253,62.9375,259,62.9375,256,68.9063" style="stroke:#000000;stroke-width:1;"/><line style="stroke:#AAAAAA;stroke-width:1;" x1="6" x2="278.9512" y1="80.4063" y2="80.4063"/><text fill="#000000" font-family="sans-serif" font-size="12" lengthAdjust="spacing" textLength="65.6836" x="6" y="96.0449">Actividad *</text><rect fill="#EEEEEE" height="16.9688" style="stroke:#000000;stroke-width:1;" width="255" x="6" y="100.875"/><text fill="#000000" font-family="sans-serif" font-size="12" lengthAdjust="spacing" textLength="121.7227" x="8" y="114.0137">Animales del campo</text><line style="stroke:#000000;stroke-width:1;" x1="250" x2="250" y1="100.875" y2="117.8438"/><polygon fill="#000000" points="253,106.875,259,106.875,256,112.8438" style="stroke:#000000;stroke-width:1;"/><line style="stroke:#AAAAAA;stroke-width:1;" x1="6" x2="278.9512" y1="124.3438" y2="124.3438"/><text fill="#000000" font-family="sans-serif" font-size="12" lengthAdjust="spacing" textLength="193.4355" x="6" y="139.9824">Dificultad de la actividad:  &#9733;&#9733;&#9734;</text><line style="stroke:#AAAAAA;stroke-width:1;" x1="6" x2="278.9512" y1="148.3125" y2="148.3125"/><text fill="#000000" font-family="sans-serif" font-size="12" font-style="italic" lengthAdjust="spacing" textLength="261.6738" x="6" y="163.9512">La actividad quedar&#225; en estado PENDIENTE</text><text fill="#000000" font-family="sans-serif" font-size="12" lengthAdjust="spacing" textLength="117.498" x="6" y="179.9199">para la familia.&lt;/i&gt;</text><line style="stroke:#000000;stroke-width:1;" x1="5" x2="278.9512" y1="5" y2="5"/><line style="stroke:#000000;stroke-width:1;" x1="5" x2="278.9512" y1="183.75" y2="183.75"/><line style="stroke:#000000;stroke-width:1;" x1="5" x2="5" y1="5" y2="31.9688"/><line style="stroke:#000000;stroke-width:1;" x1="278.9512" x2="278.9512" y1="5" y2="31.9688"/><line style="stroke:#000000;stroke-width:1;" x1="5" x2="5" y1="167.7813" y2="183.75"/><line style="stroke:#000000;stroke-width:1;" x1="278.9512" x2="278.9512" y1="167.7813" y2="183.75"/><line style="stroke:#000000;stroke-width:1;" x1="5" x2="5" y1="143.8125" y2="151.8125"/><line style="stroke:#000000;stroke-width:1;" x1="278.9512" x2="278.9512" y1="143.8125" y2="151.8125"/><line style="stroke:#000000;stroke-width:1;" x1="5" x2="5" y1="119.8438" y2="127.8438"/><line style="stroke:#000000;stroke-width:1;" x1="278.9512" x2="278.9512" y1="119.8438" y2="127.8438"/><line style="stroke:#000000;stroke-width:1;" x1="5" x2="5" y1="83.9063" y2="99.875"/><line style="stroke:#000000;stroke-width:1;" x1="278.9512" x2="278.9512" y1="83.9063" y2="99.875"/><line style="stroke:#000000;stroke-width:1;" x1="5" x2="5" y1="55.9375" y2="75.9063"/><line style="stroke:#000000;stroke-width:1;" x1="278.9512" x2="278.9512" y1="55.9375" y2="75.9063"/><line style="stroke:#000000;stroke-width:1;" x1="5" x2="5" y1="31.9688" y2="39.9688"/><line style="stroke:#000000;stroke-width:1;" x1="278.9512" x2="278.9512" y1="31.9688" y2="39.9688"/><line style="stroke:#000000;stroke-width:1;" x1="5" x2="5" y1="151.8125" y2="167.7813"/><line style="stroke:#000000;stroke-width:1;" x1="278.9512" x2="278.9512" y1="151.8125" y2="167.7813"/><line style="stroke:#000000;stroke-width:1;" x1="5" x2="5" y1="127.8438" y2="143.8125"/><line style="stroke:#000000;stroke-width:1;" x1="278.9512" x2="278.9512" y1="127.8438" y2="143.8125"/><line style="stroke:#000000;stroke-width:1;" x1="5" x2="5" y1="99.875" y2="119.8438"/><line style="stroke:#000000;stroke-width:1;" x1="278.9512" x2="278.9512" y1="99.875" y2="119.8438"/><line style="stroke:#000000;stroke-width:1;" x1="5" x2="5" y1="75.9063" y2="83.9063"/><line style="stroke:#000000;stroke-width:1;" x1="278.9512" x2="278.9512" y1="75.9063" y2="83.9063"/><line style="stroke:#000000;stroke-width:1;" x1="5" x2="5" y1="39.9688" y2="55.9375"/><line style="stroke:#000000;stroke-width:1;" x1="278.9512" x2="278.9512" y1="39.9688" y2="55.9375"/><!--SRC=[TK-nIWDH4EplAwOsQ7ev3uxa4452YdHYOFBUdYoyUvUykwI9AKsTCgqVu5VaJ_mILo74GeTTbcLdPdSxXZxR3Z9WQmbyxWyOCJe9J7X5lYZAJb-YDNIzRjJJvyD5OQEdKHjhJGtJiobtbdS6ArCwbTWBhgoPbv6uPtAd3-8Fp8rpRR1IdXUSXTemI0Sl0OxDilr7DzPQtJhq9lI2mCkbj_RFyUqdzXT-hiNZBn9MQ_5CftT8X7Hcqs9QJSOFrMHM6Nt9n6_Nceq6vKq-r2BRVG40]--></g></svg>