<svg xmlns="http://www.w3.org/2000/svg" xmlns:xlink="http://www.w3.org/1999/xlink" contentStyleType="text/css" data-diagram-type="SALT" height="225px" preserveAspectRatio="none" style="width:311px;height:225px;background:#FFFFFF;" version="1.1" viewBox="0 0 311 225" width="311px" zoomAndPan="magnify"><defs/><g><text fill="#000000" font-family="sans-serif" font-size="12" lengthAdjust="spacing" textLength="79.1836" x="7" y="18.1387">&#8592; Dashboard</text><text fill="#000000" font-family="sans-serif" font-size="12" font-weight="bold" lengthAdjust="spacing" textLength="65.8184" x="88.1836" y="18.1387">Pacientes</text><rect fill="#EEEEEE" height="17.9688" rx="5" ry="5" style="stroke:#000000;stroke-width:2.5;" width="132" x="158.502" y="9.5"/><text fill="#000000" font-family="sans-serif" font-size="12" lengthAdjust="spacing" textLength="108.0703" x="170.4668" y="22.6387">+ Nuevo paciente</text><line style="stroke:#AAAAAA;stroke-width:1;" x1="6" x2="304.0137" y1="35.4688" y2="35.4688"/><line style="stroke:#AAAAAA;stroke-width:1;" x1="6" x2="304.0137" y1="37.4688" y2="37.4688"/><text fill="#000000" font-family="sans-serif" font-size="12" lengthAdjust="spacing" textLength="119.2266" x="9" y="52.1074">&#128269; Buscar paciente...</text><line style="stroke:#000000;stroke-width:1;" x1="7" x2="250" y1="54.9375" y2="54.9375"/><line style="stroke:#000000;stroke-width:1;" x1="7" x2="7" y1="51.9375" y2="53.9375"/><line style="stroke:#000000;stroke-width:1;" x1="250" x2="250" y1="51.9375" y2="53.9375"/><line style="stroke:#AAAAAA;stroke-width:1;" x1="6" x2="304.0137" y1="62.4375" y2="62.4375"/><text fill="#000000" font-family="sans-serif" font-size="12" lengthAdjust="spacing" textLength="47.9414" x="7" y="79.0762">Nombre</text><text fill="#000000" font-family="sans-serif" font-size="12" lengthAdjust="spacing" textLength="30.1289" x="78.3574" y="79.0762">Nivel</text><text fill="#000000" font-family="sans-serif" font-size="12" lengthAdjust="spacing" textLength="84.5273" x="110.4863" y="79.0762">&#218;ltimo acceso</text><text fill="#000000" font-family="sans-serif" font-size="12" lengthAdjust="spacing" textLength="53.3203" x="197.0137" y="79.0762">Acciones</text><text fill="#000000" font-family="sans-serif" font-size="12" lengthAdjust="spacing" textLength="65.8535" x="7" y="95.0449">Ana Garc&#237;a</text><text fill="#000000" font-family="sans-serif" font-size="12" lengthAdjust="spacing" textLength="7.6348" x="78.3574" y="95.0449">3</text><text fill="#000000" font-family="sans-serif" font-size="12" lengthAdjust="spacing" textLength="69.1641" x="110.4863" y="95.0449">15/05/2026</text><rect fill="#EEEEEE" height="17.9688" rx="5" ry="5" style="stroke:#000000;stroke-width:2.5;" width="100" x="199.5137" y="86.4063"/><text fill="#000000" font-family="sans-serif" font-size="12" lengthAdjust="spacing" textLength="64.1367" x="217.4453" y="99.5449">Ver] [&#9999;] [&#128465;</text><text fill="#000000" font-family="sans-serif" font-size="12" lengthAdjust="spacing" textLength="69.3574" x="7" y="120.0137">Tom&#225;s Ruiz</text><text fill="#000000" font-family="sans-serif" font-size="12" lengthAdjust="spacing" textLength="7.6348" x="78.3574" y="120.0137">1</text><text fill="#000000" font-family="sans-serif" font-size="12" lengthAdjust="spacing" textLength="69.1641" x="110.4863" y="120.0137">12/05/2026</text><rect fill="#EEEEEE" height="17.9688" rx="5" ry="5" style="stroke:#000000;stroke-width:2.5;" width="100" x="199.5137" y="111.375"/><text fill="#000000" font-family="sans-serif" font-size="12" lengthAdjust="spacing" textLength="64.1367" x="217.4453" y="124.5137">Ver] [&#9999;] [&#128465;</text><text fill="#000000" font-family="sans-serif" font-size="12" lengthAdjust="spacing" textLength="68.3086" x="7" y="144.9824">Laura Vega</text><text fill="#000000" font-family="sans-serif" font-size="12" lengthAdjust="spacing" textLength="7.6348" x="78.3574" y="144.9824">4</text><text fill="#000000" font-family="sans-serif" font-size="12" lengthAdjust="spacing" textLength="69.1641" x="110.4863" y="144.9824">08/05/2026</text><rect fill="#EEEEEE" height="17.9688" rx="5" ry="5" style="stroke:#000000;stroke-width:2.5;" width="100" x="199.5137" y="136.3438"/><text fill="#000000" font-family="sans-serif" font-size="12" lengthAdjust="spacing" textLength="64.1367" x="217.4453" y="149.4824">Ver] [&#9999;] [&#128465;</text><text fill="#000000" font-family="sans-serif" font-size="12" lengthAdjust="spacing" textLength="69.2695" x="7" y="169.9512">Marco Sanz</text><text fill="#000000" font-family="sans-serif" font-size="12" lengthAdjust="spacing" textLength="7.6348" x="78.3574" y="169.9512">2</text><text fill="#000000" font-family="sans-serif" font-size="12" lengthAdjust="spacing" textLength="69.1641" x="110.4863" y="169.9512">01/05/2026</text><rect fill="#EEEEEE" height="17.9688" rx="5" ry="5" style="stroke:#000000;stroke-width:2.5;" width="100" x="199.5137" y="161.3125"/><text fill="#000000" font-family="sans-serif" font-size="12" lengthAdjust="spacing" textLength="64.1367" x="217.4453" y="174.4512">Ver] [&#9999;] [&#128465;</text><line style="stroke:#000000;stroke-width:1;" x1="6" x2="77.3574" y1="66.9375" y2="66.9375"/><line style="stroke:#000000;stroke-width:1;" x1="109.4863" x2="196.0137" y1="107.875" y2="107.875"/><line style="stroke:#000000;stroke-width:1;" x1="77.3574" x2="109.4863" y1="66.9375" y2="66.9375"/><line style="stroke:#000000;stroke-width:1;" x1="196.0137" x2="303.0137" y1="107.875" y2="107.875"/><line style="stroke:#000000;stroke-width:1;" x1="109.4863" x2="196.0137" y1="66.9375" y2="66.9375"/><line style="stroke:#000000;stroke-width:1;" x1="196.0137" x2="303.0137" y1="66.9375" y2="66.9375"/><line style="stroke:#000000;stroke-width:1;" x1="6" x2="77.3574" y1="182.7813" y2="182.7813"/><line style="stroke:#000000;stroke-width:1;" x1="77.3574" x2="109.4863" y1="182.7813" y2="182.7813"/><line style="stroke:#000000;stroke-width:1;" x1="109.4863" x2="196.0137" y1="182.7813" y2="182.7813"/><line style="stroke:#000000;stroke-width:1;" x1="6" x2="77.3574" y1="132.8438" y2="132.8438"/><line style="stroke:#000000;stroke-width:1;" x1="196.0137" x2="303.0137" y1="182.7813" y2="182.7813"/><line style="stroke:#000000;stroke-width:1;" x1="77.3574" x2="109.4863" y1="132.8438" y2="132.8438"/><line style="stroke:#000000;stroke-width:1;" x1="6" x2="77.3574" y1="82.9063" y2="82.9063"/><line style="stroke:#000000;stroke-width:1;" x1="109.4863" x2="196.0137" y1="132.8438" y2="132.8438"/><line style="stroke:#000000;stroke-width:1;" x1="77.3574" x2="109.4863" y1="82.9063" y2="82.9063"/><line style="stroke:#000000;stroke-width:1;" x1="196.0137" x2="303.0137" y1="132.8438" y2="132.8438"/><line style="stroke:#000000;stroke-width:1;" x1="109.4863" x2="196.0137" y1="82.9063" y2="82.9063"/><line style="stroke:#000000;stroke-width:1;" x1="196.0137" x2="303.0137" y1="82.9063" y2="82.9063"/><line style="stroke:#000000;stroke-width:1;" x1="6" x2="77.3574" y1="157.8125" y2="157.8125"/><line style="stroke:#000000;stroke-width:1;" x1="77.3574" x2="109.4863" y1="157.8125" y2="157.8125"/><line style="stroke:#000000;stroke-width:1;" x1="6" x2="77.3574" y1="107.875" y2="107.875"/><line style="stroke:#000000;stroke-width:1;" x1="109.4863" x2="196.0137" y1="157.8125" y2="157.8125"/><line style="stroke:#000000;stroke-width:1;" x1="77.3574" x2="109.4863" y1="107.875" y2="107.875"/><line style="stroke:#000000;stroke-width:1;" x1="196.0137" x2="303.0137" y1="157.8125" y2="157.8125"/><line style="stroke:#000000;stroke-width:1;" x1="6" x2="6" y1="66.9375" y2="82.9063"/><line style="stroke:#000000;stroke-width:1;" x1="303.0137" x2="303.0137" y1="157.8125" y2="182.7813"/><line style="stroke:#000000;stroke-width:1;" x1="77.3574" x2="77.3574" y1="66.9375" y2="82.9063"/><line style="stroke:#000000;stroke-width:1;" x1="109.4863" x2="109.4863" y1="66.9375" y2="82.9063"/><line style="stroke:#000000;stroke-width:1;" x1="196.0137" x2="196.0137" y1="66.9375" y2="82.9063"/><line style="stroke:#000000;stroke-width:1;" x1="303.0137" x2="303.0137" y1="66.9375" y2="82.9063"/><line style="stroke:#000000;stroke-width:1;" x1="6" x2="6" y1="132.8438" y2="157.8125"/><line style="stroke:#000000;stroke-width:1;" x1="77.3574" x2="77.3574" y1="132.8438" y2="157.8125"/><line style="stroke:#000000;stroke-width:1;" x1="109.4863" x2="109.4863" y1="132.8438" y2="157.8125"/><line style="stroke:#000000;stroke-width:1;" x1="196.0137" x2="196.0137" y1="132.8438" y2="157.8125"/><line style="stroke:#000000;stroke-width:1;" x1="303.0137" x2="303.0137" y1="132.8438" y2="157.8125"/><line style="stroke:#000000;stroke-width:1;" x1="6" x2="6" y1="107.875" y2="132.8438"/><line style="stroke:#000000;stroke-width:1;" x1="77.3574" x2="77.3574" y1="107.875" y2="132.8438"/><line style="stroke:#000000;stroke-width:1;" x1="109.4863" x2="109.4863" y1="107.875" y2="132.8438"/><line style="stroke:#000000;stroke-width:1;" x1="196.0137" x2="196.0137" y1="107.875" y2="132.8438"/><line style="stroke:#000000;stroke-width:1;" x1="303.0137" x2="303.0137" y1="107.875" y2="132.8438"/><line style="stroke:#000000;stroke-width:1;" x1="6" x2="6" y1="82.9063" y2="107.875"/><line style="stroke:#000000;stroke-width:1;" x1="77.3574" x2="77.3574" y1="82.9063" y2="107.875"/><line style="stroke:#000000;stroke-width:1;" x1="109.4863" x2="109.4863" y1="82.9063" y2="107.875"/><line style="stroke:#000000;stroke-width:1;" x1="196.0137" x2="196.0137" y1="82.9063" y2="107.875"/><line style="stroke:#000000;stroke-width:1;" x1="303.0137" x2="303.0137" y1="82.9063" y2="107.875"/><line style="stroke:#000000;stroke-width:1;" x1="6" x2="6" y1="157.8125" y2="182.7813"/><line style="stroke:#000000;stroke-width:1;" x1="77.3574" x2="77.3574" y1="157.8125" y2="182.7813"/><line style="stroke:#000000;stroke-width:1;" x1="109.4863" x2="109.4863" y1="157.8125" y2="182.7813"/><line style="stroke:#000000;stroke-width:1;" x1="196.0137" x2="196.0137" y1="157.8125" y2="182.7813"/><line style="stroke:#AAAAAA;stroke-width:1;" x1="6" x2="304.0137" y1="188.2813" y2="188.2813"/><rect fill="#EEEEEE" height="17.9688" rx="5" ry="5" style="stroke:#000000;stroke-width:2.5;" width="84" x="9.5" y="196.2813"/><text fill="#000000" font-family="sans-serif" font-size="12" lengthAdjust="spacing" textLength="61.4883" x="20.7559" y="209.4199">&#9664; Anterior</text><text fill="#000000" font-family="sans-serif" font-size="12" lengthAdjust="spacing" textLength="82.2129" x="98" y="204.9199">P&#225;gina 1 de 2</text><rect fill="#EEEEEE" height="17.9688" rx="5" ry="5" style="stroke:#000000;stroke-width:2.5;" width="92" x="184.7129" y="196.2813"/><text fill="#000000" font-family="sans-serif" font-size="12" lengthAdjust="spacing" textLength="69.627" x="195.8994" y="209.4199">Siguiente &#9654;</text><line style="stroke:#000000;stroke-width:1;" x1="5" x2="304.0137" y1="5" y2="5"/><line style="stroke:#000000;stroke-width:1;" x1="5" x2="304.0137" y1="218.75" y2="218.75"/><line style="stroke:#000000;stroke-width:1;" x1="5" x2="5" y1="5" y2="31.9688"/><line style="stroke:#000000;stroke-width:1;" x1="304.0137" x2="304.0137" y1="5" y2="31.9688"/><line style="stroke:#000000;stroke-width:1;" x1="5" x2="5" y1="183.7813" y2="191.7813"/><line style="stroke:#000000;stroke-width:1;" x1="304.0137" x2="304.0137" y1="183.7813" y2="191.7813"/><line style="stroke:#000000;stroke-width:1;" x1="5" x2="5" y1="57.9375" y2="65.9375"/><line style="stroke:#000000;stroke-width:1;" x1="304.0137" x2="304.0137" y1="57.9375" y2="65.9375"/><line style="stroke:#000000;stroke-width:1;" x1="5" x2="5" y1="31.9688" y2="39.9688"/><line style="stroke:#000000;stroke-width:1;" x1="304.0137" x2="304.0137" y1="31.9688" y2="39.9688"/><line style="stroke:#000000;stroke-width:1;" x1="5" x2="5" y1="191.7813" y2="218.75"/><line style="stroke:#000000;stroke-width:1;" x1="304.0137" x2="304.0137" y1="191.7813" y2="218.75"/><line style="stroke:#000000;stroke-width:1;" x1="5" x2="5" y1="65.9375" y2="183.7813"/><line style="stroke:#000000;stroke-width:1;" x1="304.0137" x2="304.0137" y1="65.9375" y2="183.7813"/><line style="stroke:#000000;stroke-width:1;" x1="5" x2="5" y1="39.9688" y2="57.9375"/><line style="stroke:#000000;stroke-width:1;" x1="304.0137" x2="304.0137" y1="39.9688" y2="57.9375"/><!--SRC=[ZL7DIiD04BxtAOPwB3O_Ml5G2nN1YuPYfPUGmsIxn8KaAxj93pO1Jzv41R4WGka3UFK5yYPvWZw2OveKZncO_TZPx_jccDKO9frbhmEmf0GedrxX0lMTBr7D8OEXFveW4pnEk1uQ_eXARW-Sb2yatDSF7YbpoZCAWkvs_VuCvwbcgFQSVhyFJNI9T4Znr_IWwkh8o5TyJyZ04GiU4XQVOI8Y2SWOrv8AOyQ4ZBckPECOuH8LAxwnrXtLQ0qCSs3OfdsokxiphZnmowyNEhVhrPjN6TpAgDXek4d5GoDiq6vbS8MfGfZne1dWk4Rpj9N-cgQNCCMuwMytUgk5Fl-toChEBLUFj9M4Ao69di6as0I2jcJ1d9Ct-Kn5a5O_0kN7pyua_mK0]--></g></svg>