<svg xmlns="http://www.w3.org/2000/svg" xmlns:xlink="http://www.w3.org/1999/xlink" contentStyleType="text/css" data-diagram-type="SALT" height="103px" preserveAspectRatio="none" style="width:363px;height:103px;background:#FFFFFF;" version="1.1" viewBox="0 0 363 103" width="363px" zoomAndPan="magnify"><defs/><g><text fill="#000000" font-family="sans-serif" font-size="12" lengthAdjust="spacing" textLength="45.6211" x="7" y="18.1387">&#8592; Inicio</text><text fill="#000000" font-family="sans-serif" font-size="12" font-weight="bold" lengthAdjust="spacing" textLength="118.9395" x="54.6211" y="18.1387">Registros cl&#237;nicos</text><line style="stroke:#AAAAAA;stroke-width:1;" x1="6" x2="356.541" y1="26.4688" y2="26.4688"/><line style="stroke:#AAAAAA;stroke-width:1;" x1="6" x2="356.541" y1="28.4688" y2="28.4688"/><text fill="#000000" font-family="sans-serif" font-size="12" lengthAdjust="spacing" textLength="25.623" x="7" y="44.1074">Tipo</text><text fill="#000000" font-family="sans-serif" font-size="12" lengthAdjust="spacing" textLength="35.8418" x="105.1875" y="44.1074">Fecha</text><text fill="#000000" font-family="sans-serif" font-size="12" lengthAdjust="spacing" textLength="33.6504" x="176.3516" y="44.1074">T&#237;tulo</text><text fill="#000000" font-family="sans-serif" font-size="12" lengthAdjust="spacing" textLength="96.1875" x="7" y="60.0762">Recomendaci&#243;n</text><text fill="#000000" font-family="sans-serif" font-size="12" lengthAdjust="spacing" textLength="69.1641" x="105.1875" y="60.0762">14/05/2026</text><text fill="#000000" font-family="sans-serif" font-size="12" lengthAdjust="spacing" textLength="178.1895" x="176.3516" y="60.0762">Refuerzo animales del campo</text><text fill="#000000" font-family="sans-serif" font-size="12" lengthAdjust="spacing" textLength="28.377" x="7" y="76.0449">Nota</text><text fill="#000000" font-family="sans-serif" font-size="12" lengthAdjust="spacing" textLength="69.1641" x="105.1875" y="76.0449">12/05/2026</text><text fill="#000000" font-family="sans-serif" font-size="12" lengthAdjust="spacing" textLength="145.7695" x="176.3516" y="76.0449">Buena sesi&#243;n presencial</text><text fill="#000000" font-family="sans-serif" font-size="12" lengthAdjust="spacing" textLength="77.2207" x="7" y="92.0137">Recordatorio</text><text fill="#000000" font-family="sans-serif" font-size="12" lengthAdjust="spacing" textLength="69.1641" x="105.1875" y="92.0137">20/05/2026</text><text fill="#000000" font-family="sans-serif" font-size="12" lengthAdjust="spacing" textLength="170.6719" x="176.3516" y="92.0137">Revisar progreso emociones</text><line style="stroke:#000000;stroke-width:1;" x1="6" x2="104.1875" y1="31.9688" y2="31.9688"/><line style="stroke:#000000;stroke-width:1;" x1="175.3516" x2="355.541" y1="63.9063" y2="63.9063"/><line style="stroke:#000000;stroke-width:1;" x1="104.1875" x2="175.3516" y1="31.9688" y2="31.9688"/><line style="stroke:#000000;stroke-width:1;" x1="175.3516" x2="355.541" y1="31.9688" y2="31.9688"/><line style="stroke:#000000;stroke-width:1;" x1="6" x2="104.1875" y1="79.875" y2="79.875"/><line style="stroke:#000000;stroke-width:1;" x1="104.1875" x2="175.3516" y1="79.875" y2="79.875"/><line style="stroke:#000000;stroke-width:1;" x1="6" x2="104.1875" y1="47.9375" y2="47.9375"/><line style="stroke:#000000;stroke-width:1;" x1="175.3516" x2="355.541" y1="79.875" y2="79.875"/><line style="stroke:#000000;stroke-width:1;" x1="104.1875" x2="175.3516" y1="47.9375" y2="47.9375"/><line style="stroke:#000000;stroke-width:1;" x1="175.3516" x2="355.541" y1="47.9375" y2="47.9375"/><line style="stroke:#000000;stroke-width:1;" x1="6" x2="104.1875" y1="95.8438" y2="95.8438"/><line style="stroke:#000000;stroke-width:1;" x1="104.1875" x2="175.3516" y1="95.8438" y2="95.8438"/><line style="stroke:#000000;stroke-width:1;" x1="175.3516" x2="355.541" y1="95.8438" y2="95.8438"/><line style="stroke:#000000;stroke-width:1;" x1="6" x2="104.1875" y1="63.9063" y2="63.9063"/><line style="stroke:#000000;stroke-width:1;" x1="104.1875" x2="175.3516" y1="63.9063" y2="63.9063"/><line style="stroke:#000000;stroke-width:1;" x1="6" x2="6" y1="31.9688" y2="47.9375"/><line style="stroke:#000000;stroke-width:1;" x1="175.3516" x2="175.3516" y1="63.9063" y2="79.875"/><line style="stroke:#000000;stroke-width:1;" x1="355.541" x2="355.541" y1="63.9063" y2="79.875"/><line style="stroke:#000000;stroke-width:1;" x1="104.1875" x2="104.1875" y1="31.9688" y2="47.9375"/><line style="stroke:#000000;stroke-width:1;" x1="175.3516" x2="175.3516" y1="31.9688" y2="47.9375"/><line style="stroke:#000000;stroke-width:1;" x1="355.541" x2="355.541" y1="31.9688" y2="47.9375"/><line style="stroke:#000000;stroke-width:1;" x1="6" x2="6" y1="79.875" y2="95.8438"/><line style="stroke:#000000;stroke-width:1;" x1="104.1875" x2="104.1875" y1="79.875" y2="95.8438"/><line style="stroke:#000000;stroke-width:1;" x1="6" x2="6" y1="47.9375" y2="63.9063"/><line style="stroke:#000000;stroke-width:1;" x1="175.3516" x2="175.3516" y1="79.875" y2="95.8438"/><line style="stroke:#000000;stroke-width:1;" x1="355.541" x2="355.541" y1="79.875" y2="95.8438"/><line style="stroke:#000000;stroke-width:1;" x1="104.1875" x2="104.1875" y1="47.9375" y2="63.9063"/><line style="stroke:#000000;stroke-width:1;" x1="175.3516" x2="175.3516" y1="47.9375" y2="63.9063"/><line style="stroke:#000000;stroke-width:1;" x1="355.541" x2="355.541" y1="47.9375" y2="63.9063"/><line style="stroke:#000000;stroke-width:1;" x1="6" x2="6" y1="63.9063" y2="79.875"/><line style="stroke:#000000;stroke-width:1;" x1="104.1875" x2="104.1875" y1="63.9063" y2="79.875"/><line style="stroke:#000000;stroke-width:1;" x1="5" x2="356.541" y1="5" y2="5"/><line style="stroke:#000000;stroke-width:1;" x1="5" x2="356.541" y1="96.8438" y2="96.8438"/><line style="stroke:#000000;stroke-width:1;" x1="5" x2="5" y1="5" y2="22.9688"/><line style="stroke:#000000;stroke-width:1;" x1="356.541" x2="356.541" y1="22.9688" y2="30.9688"/><line style="stroke:#000000;stroke-width:1;" x1="356.541" x2="356.541" y1="5" y2="22.9688"/><line style="stroke:#000000;stroke-width:1;" x1="5" x2="5" y1="30.9688" y2="96.8438"/><line style="stroke:#000000;stroke-width:1;" x1="5" x2="5" y1="22.9688" y2="30.9688"/><line style="stroke:#000000;stroke-width:1;" x1="356.541" x2="356.541" y1="30.9688" y2="96.8438"/><!--SRC=[LP0z3i8m38LtJc69aQ6b0YPWO41YOQYuW4aDH4hZAauP-5cPkGWJH-XDE0ccI1LOyc2zz_d95dInTnxq0CxQ0A_R7LRU6ijmWUbsdjFUIWmiO5ppK85bccpdwhrgpxG-QBzbDxPYwEe2Ip87xAPDyuYruzQPa-6IV876Da-lud2KfECaIxF9nvhJhgPmOa1lItGaK903WsNrnTSSyJTecFtIYveyWf2qkwj0GjvOT5roA31oq0lLdAN_mKSh61JYlN8CLBA-mfEq1r_V]--></g></svg>