<svg xmlns="http://www.w3.org/2000/svg" xmlns:xlink="http://www.w3.org/1999/xlink" contentStyleType="text/css" data-diagram-type="ACTIVITY" height="723px" preserveAspectRatio="none" style="width:963px;height:723px;background:#FFFFFF;" version="1.1" viewBox="0 0 963 723" width="963px" zoomAndPan="magnify"><title>registrarSesion()</title><defs/><g><g class="title" data-source-line="1"><text fill="#000000" font-family="sans-serif" font-size="14" font-weight="bold" lengthAdjust="spacing" textLength="134.5928" x="412.8309" y="32.9951">registrarSesion()</text></g><rect fill="none" height="20.9531" style="stroke:none;stroke-width:1;" width="930.2546" x="15" y="50.042"/><ellipse cx="113.5498" cy="85.9951" fill="#222222" rx="10" ry="10" style="stroke:#222222;stroke-width:1;"/><rect fill="#F1F1F1" height="47.9375" rx="12.5" ry="12.5" style="stroke:#181818;stroke-width:0.5;" width="185.0996" x="21" y="115.9951"/><text fill="#000000" font-family="sans-serif" font-size="12" lengthAdjust="spacing" textLength="139.4941" x="31" y="137.1338">solicita registrar sesión</text><text fill="#000000" font-family="sans-serif" font-size="12" lengthAdjust="spacing" textLength="165.0996" x="31" y="151.1025">desde SESIONES_ABIERTAS</text><rect fill="#F1F1F1" height="33.9688" rx="12.5" ry="12.5" style="stroke:#181818;stroke-width:0.5;" width="158" x="34.5498" y="251.8701"/><text fill="#000000" font-family="sans-serif" font-size="12" lengthAdjust="spacing" textLength="138" x="44.5498" y="273.0088">selecciona un paciente</text><polygon fill="#F1F1F1" points="95.7527,429.6514,131.3469,429.6514,143.3469,441.6514,131.3469,453.6514,95.7527,453.6514,83.7527,441.6514,95.7527,429.6514" style="stroke:#181818;stroke-width:0.5;"/><text fill="#000000" font-family="sans-serif" font-size="11" lengthAdjust="spacing" textLength="35.5942" x="95.7527" y="445.4595">acción</text><text fill="#000000" font-family="sans-serif" font-size="11" lengthAdjust="spacing" textLength="45.0044" x="38.7483" y="439.0571">Guardar</text><text fill="#000000" font-family="sans-serif" font-size="11" lengthAdjust="spacing" textLength="48.5278" x="143.3469" y="439.0571">Cancelar</text><line style="stroke:#000000;stroke-width:1.5;" x1="15" x2="15" y1="50.042" y2="711.5576"/><rect fill="#F1F1F1" height="47.9375" rx="12.5" ry="12.5" style="stroke:#181818;stroke-width:0.5;" width="229.3848" x="525.1588" y="183.9326"/><text fill="#000000" font-family="sans-serif" font-size="12" lengthAdjust="spacing" textLength="209.3848" x="535.1588" y="205.0713">presenta lista de pacientes activos</text><text fill="#000000" font-family="sans-serif" font-size="12" lengthAdjust="spacing" textLength="166.1777" x="535.1588" y="219.04">• Nombre de cada paciente</text><rect fill="#F1F1F1" height="103.8125" rx="12.5" ry="12.5" style="stroke:#181818;stroke-width:0.5;" width="260.0352" x="509.8336" y="305.8389"/><text fill="#000000" font-family="sans-serif" font-size="12" lengthAdjust="spacing" textLength="179.9355" x="519.8336" y="326.9775">presenta formulario de sesión</text><text fill="#000000" font-family="sans-serif" font-size="12" lengthAdjust="spacing" textLength="124.166" x="519.8336" y="340.9463">• Fecha (obligatorio)</text><text fill="#000000" font-family="sans-serif" font-size="12" lengthAdjust="spacing" textLength="240.0352" x="519.8336" y="354.915">• Tipo: PRESENCIAL / CASA (obligatorio)</text><text fill="#000000" font-family="sans-serif" font-size="12" lengthAdjust="spacing" textLength="163.1953" x="519.8336" y="368.8838">• Observaciones (opcional)</text><text fill="#000000" font-family="sans-serif" font-size="12" lengthAdjust="spacing" textLength="181.2422" x="519.8336" y="382.8525">• Aciertos y errores (opcional)</text><text fill="#000000" font-family="sans-serif" font-size="12" lengthAdjust="spacing" textLength="157.2656" x="519.8336" y="396.8213">• «Guardar» o «Cancelar»</text><polygon fill="#F1F1F1" points="362.8474,473.6514,522.0413,473.6514,534.0413,485.6514,522.0413,497.6514,362.8474,497.6514,350.8474,485.6514,362.8474,473.6514" style="stroke:#181818;stroke-width:0.5;"/><text fill="#000000" font-family="sans-serif" font-size="11" lengthAdjust="spacing" textLength="159.1938" x="362.8474" y="489.4595">datos obligatorios completos</text><text fill="#000000" font-family="sans-serif" font-size="11" lengthAdjust="spacing" textLength="8.7871" x="342.0603" y="483.0571">sí</text><text fill="#000000" font-family="sans-serif" font-size="11" lengthAdjust="spacing" textLength="181.0811" x="534.0413" y="483.0571">no — campos obligatorios vacíos</text><rect fill="#F1F1F1" height="61.9063" rx="12.5" ry="12.5" style="stroke:#181818;stroke-width:0.5;" width="221.627" x="216.0996" y="507.6514"/><text fill="#000000" font-family="sans-serif" font-size="12" lengthAdjust="spacing" textLength="201.627" x="226.0996" y="528.79">crea Sesion vinculada al paciente</text><text fill="#000000" font-family="sans-serif" font-size="12" lengthAdjust="spacing" textLength="161.8594" x="226.0996" y="542.7588">• Tipo PRESENCIAL o CASA</text><text fill="#000000" font-family="sans-serif" font-size="12" lengthAdjust="spacing" textLength="199.0488" x="226.0996" y="556.7275">• Queda en historial del paciente</text><rect fill="#F1F1F1" height="33.9688" rx="12.5" ry="12.5" style="stroke:#181818;stroke-width:0.5;" width="204.2715" x="224.7773" y="604.5576"/><text fill="#000000" font-family="sans-serif" font-size="12" lengthAdjust="spacing" textLength="184.2715" x="234.7773" y="625.6963">retorna a SESIONES_ABIERTAS</text><ellipse cx="326.9131" cy="678.5576" fill="none" rx="11" ry="11" style="stroke:#222222;stroke-width:1;"/><ellipse cx="326.9131" cy="678.5576" fill="#222222" rx="6" ry="6" style="stroke:#222222;stroke-width:1;"/><rect fill="#F1F1F1" height="61.9063" rx="12.5" ry="12.5" style="stroke:#181818;stroke-width:0.5;" width="200.498" x="457.7266" y="507.6514"/><text fill="#000000" font-family="sans-serif" font-size="12" lengthAdjust="spacing" textLength="180.498" x="467.7266" y="528.79">muestra errores de validación</text><text fill="#000000" font-family="sans-serif" font-size="12" lengthAdjust="spacing" textLength="168.3047" x="467.7266" y="542.7588">• Indica campos pendientes</text><text fill="#000000" font-family="sans-serif" font-size="12" lengthAdjust="spacing" textLength="169.3945" x="467.7266" y="556.7275">• No guarda ninguna Sesion</text><rect fill="#F1F1F1" height="33.9688" rx="12.5" ry="12.5" style="stroke:#181818;stroke-width:0.5;" width="172.6543" x="471.6484" y="604.5576"/><text fill="#000000" font-family="sans-serif" font-size="12" lengthAdjust="spacing" textLength="152.6543" x="481.6484" y="625.6963">permanece en formulario</text><ellipse cx="557.9756" cy="678.5576" fill="none" rx="11" ry="11" style="stroke:#222222;stroke-width:1;"/><ellipse cx="557.9756" cy="678.5576" fill="#222222" rx="6" ry="6" style="stroke:#222222;stroke-width:1;"/><rect fill="#F1F1F1" height="47.9375" rx="12.5" ry="12.5" style="stroke:#181818;stroke-width:0.5;" width="190.6309" x="741.9426" y="473.6514"/><text fill="#000000" font-family="sans-serif" font-size="12" lengthAdjust="spacing" textLength="130.0195" x="751.9426" y="494.79">descarta la operación</text><text fill="#000000" font-family="sans-serif" font-size="12" lengthAdjust="spacing" textLength="170.6309" x="751.9426" y="508.7588">• No se crea ninguna Sesion</text><rect fill="#F1F1F1" height="33.9688" rx="12.5" ry="12.5" style="stroke:#181818;stroke-width:0.5;" width="204.2715" x="735.1223" y="556.5889"/><text fill="#000000" font-family="sans-serif" font-size="12" lengthAdjust="spacing" textLength="184.2715" x="745.1223" y="577.7275">retorna a SESIONES_ABIERTAS</text><ellipse cx="837.2581" cy="636.5576" fill="none" rx="11" ry="11" style="stroke:#222222;stroke-width:1;"/><ellipse cx="837.2581" cy="636.5576" fill="#222222" rx="6" ry="6" style="stroke:#222222;stroke-width:1;"/><line style="stroke:#000000;stroke-width:1.5;" x1="210.0996" x2="210.0996" y1="50.042" y2="711.5576"/><line style="stroke:#000000;stroke-width:1.5;" x1="943.3938" x2="943.3938" y1="50.042" y2="711.5576"/><line style="stroke:#181818;stroke-width:1;" x1="113.5498" x2="113.5498" y1="95.9951" y2="115.9951"/><polygon fill="#181818" points="109.5498,105.9951,113.5498,115.9951,117.5498,105.9951,113.5498,109.9951" style="stroke:#181818;stroke-width:1;"/><line style="stroke:#181818;stroke-width:1;" x1="326.9131" x2="326.9131" y1="569.5576" y2="604.5576"/><polygon fill="#181818" points="322.9131,594.5576,326.9131,604.5576,330.9131,594.5576,326.9131,598.5576" style="stroke:#181818;stroke-width:1;"/><line style="stroke:#181818;stroke-width:1;" x1="326.9131" x2="326.9131" y1="638.5264" y2="667.5576"/><polygon fill="#181818" points="322.9131,657.5576,326.9131,667.5576,330.9131,657.5576,326.9131,661.5576" style="stroke:#181818;stroke-width:1;"/><line style="stroke:#181818;stroke-width:1;" x1="557.9756" x2="557.9756" y1="569.5576" y2="604.5576"/><polygon fill="#181818" points="553.9756,594.5576,557.9756,604.5576,561.9756,594.5576,557.9756,598.5576" style="stroke:#181818;stroke-width:1;"/><line style="stroke:#181818;stroke-width:1;" x1="557.9756" x2="557.9756" y1="638.5264" y2="667.5576"/><polygon fill="#181818" points="553.9756,657.5576,557.9756,667.5576,561.9756,657.5576,557.9756,661.5576" style="stroke:#181818;stroke-width:1;"/><line style="stroke:#181818;stroke-width:1;" x1="350.8474" x2="326.9131" y1="485.6514" y2="485.6514"/><line style="stroke:#181818;stroke-width:1;" x1="326.9131" x2="326.9131" y1="485.6514" y2="507.6514"/><polygon fill="#181818" points="322.9131,497.6514,326.9131,507.6514,330.9131,497.6514,326.9131,501.6514" style="stroke:#181818;stroke-width:1;"/><line style="stroke:#181818;stroke-width:1;" x1="534.0413" x2="557.9756" y1="485.6514" y2="485.6514"/><line style="stroke:#181818;stroke-width:1;" x1="557.9756" x2="557.9756" y1="485.6514" y2="507.6514"/><polygon fill="#181818" points="553.9756,497.6514,557.9756,507.6514,561.9756,497.6514,557.9756,501.6514" style="stroke:#181818;stroke-width:1;"/><line style="stroke:#181818;stroke-width:1;" x1="837.2581" x2="837.2581" y1="521.5889" y2="556.5889"/><polygon fill="#181818" points="833.2581,546.5889,837.2581,556.5889,841.2581,546.5889,837.2581,550.5889" style="stroke:#181818;stroke-width:1;"/><line style="stroke:#181818;stroke-width:1;" x1="837.2581" x2="837.2581" y1="590.5576" y2="625.5576"/><polygon fill="#181818" points="833.2581,615.5576,837.2581,625.5576,841.2581,615.5576,837.2581,619.5576" style="stroke:#181818;stroke-width:1;"/><line style="stroke:#181818;stroke-width:1;" x1="113.5498" x2="113.5498" y1="163.9326" y2="168.9326"/><line style="stroke:#181818;stroke-width:1;" x1="113.5498" x2="639.8512" y1="168.9326" y2="168.9326"/><line style="stroke:#181818;stroke-width:1;" x1="639.8512" x2="639.8512" y1="168.9326" y2="183.9326"/><polygon fill="#181818" points="635.8512,173.9326,639.8512,183.9326,643.8512,173.9326,639.8512,177.9326" style="stroke:#181818;stroke-width:1;"/><line style="stroke:#181818;stroke-width:1;" x1="639.8512" x2="639.8512" y1="231.8701" y2="236.8701"/><line style="stroke:#181818;stroke-width:1;" x1="639.8512" x2="113.5498" y1="236.8701" y2="236.8701"/><line style="stroke:#181818;stroke-width:1;" x1="113.5498" x2="113.5498" y1="236.8701" y2="251.8701"/><polygon fill="#181818" points="109.5498,241.8701,113.5498,251.8701,117.5498,241.8701,113.5498,245.8701" style="stroke:#181818;stroke-width:1;"/><line style="stroke:#181818;stroke-width:1;" x1="113.5498" x2="113.5498" y1="285.8389" y2="290.8389"/><line style="stroke:#181818;stroke-width:1;" x1="113.5498" x2="639.8512" y1="290.8389" y2="290.8389"/><line style="stroke:#181818;stroke-width:1;" x1="639.8512" x2="639.8512" y1="290.8389" y2="305.8389"/><polygon fill="#181818" points="635.8512,295.8389,639.8512,305.8389,643.8512,295.8389,639.8512,299.8389" style="stroke:#181818;stroke-width:1;"/><line style="stroke:#181818;stroke-width:1;" x1="83.7527" x2="71.7527" y1="441.6514" y2="441.6514"/><line style="stroke:#181818;stroke-width:1;" x1="71.7527" x2="71.7527" y1="441.6514" y2="459.6514"/><line style="stroke:#181818;stroke-width:1;" x1="71.7527" x2="442.4443" y1="459.6514" y2="459.6514"/><line style="stroke:#181818;stroke-width:1;" x1="442.4443" x2="442.4443" y1="459.6514" y2="473.6514"/><polygon fill="#181818" points="438.4443,463.6514,442.4443,473.6514,446.4443,463.6514,442.4443,467.6514" style="stroke:#181818;stroke-width:1;"/><line style="stroke:#181818;stroke-width:1;" x1="143.3469" x2="837.2581" y1="441.6514" y2="441.6514"/><line style="stroke:#181818;stroke-width:1;" x1="837.2581" x2="837.2581" y1="441.6514" y2="473.6514"/><polygon fill="#181818" points="833.2581,463.6514,837.2581,473.6514,841.2581,463.6514,837.2581,467.6514" style="stroke:#181818;stroke-width:1;"/><line style="stroke:#181818;stroke-width:1;" x1="639.8512" x2="639.8512" y1="409.6514" y2="414.6514"/><line style="stroke:#181818;stroke-width:1;" x1="639.8512" x2="113.5498" y1="414.6514" y2="414.6514"/><line style="stroke:#181818;stroke-width:1;" x1="113.5498" x2="113.5498" y1="414.6514" y2="429.6514"/><polygon fill="#181818" points="109.5498,419.6514,113.5498,429.6514,117.5498,419.6514,113.5498,423.6514" style="stroke:#181818;stroke-width:1;"/><text fill="#000000" font-family="sans-serif" font-size="18" lengthAdjust="spacing" textLength="88.4355" x="68.332" y="66.75">Logopeda</text><text fill="#000000" font-family="sans-serif" font-size="18" lengthAdjust="spacing" textLength="72.501" x="540.4962" y="66.75">Sistema</text><!--SRC=[XLCnZjim4EprYYtbAhskKWmbC73m9QVhWpMrbWbG9B6a30Iu8e_82z86LwLCT_v9Nf8bRSbspa0waPoTcPrTHHqD0LElGsJabe9sjbmKnVEzwvsd3f-B495ZKLJ16Qrqn3CSWk0FlspHKUW8sgPTFQoRzalzVjKyFjNjdV2q0gL1Q2hF5CXAlP4h12dmgBJSK01KKUzTAFvy-m5hDsoOqhl23cVGtPMfAf0XfSGjmcYlG3SKjuw7qI1hbsWdrqdi0waTGkasHlSOdI0M-Vv9UrV1fyUcRTRBLNqFxs1Pj_KDvCCc4EynMP56IkUpANDyhCKMHnVWAn2puxU8rvyVH-GE-VKtE3ajqIeowNZTiDv2YTAm65z0t965ybIuA03EJGCaP8T9zC9h0EK6RqYkf_9mU4cb09LYGZZE7lRQAebAWaSpnvfXKooNgRYSolpyUHIl8EGxiIEoGj6HkPXEbcDnmJ8tlBKn2I6rNZx818BIEg7-Bhim-7zRajGFBzBGaNOOAMtb7BHCUez6TvX3cpskRASLJdoUv9XtS0Qi7VGvMR3QzgETeZcvzyG3MbAK-ZmlrhLp8TqMH__JG9FBIduK9N-J_0C8CbYUlPs4fI0Fuwto_rBBobdtBm00]--></g></svg>