<svg xmlns="http://www.w3.org/2000/svg" xmlns:xlink="http://www.w3.org/1999/xlink" contentStyleType="text/css" data-diagram-type="STATE" height="651px" preserveAspectRatio="none" style="width:1288px;height:651px;background:#FFFFFF;" version="1.1" viewBox="0 0 1288 651" width="1288px" zoomAndPan="magnify"><defs/><g><ellipse cx="543.2804" cy="16" fill="#222222" rx="10" ry="10" style="stroke:#222222;stroke-width:1;"/><g id="HOME"><rect fill="#F1F1F1" height="50" rx="12.5" ry="12.5" style="stroke:#181818;stroke-width:0.5;" width="62.4717" x="512.2804" y="87"/><line style="stroke:#181818;stroke-width:0.5;" x1="512.2804" x2="574.752" y1="113.2969" y2="113.2969"/><text fill="#000000" font-family="sans-serif" font-size="14" lengthAdjust="spacing" textLength="42.4717" x="522.2804" y="104.9951">HOME</text></g><ellipse cx="19.2804" cy="239" fill="none" rx="11" ry="11" style="stroke:#222222;stroke-width:1;"/><ellipse cx="19.2804" cy="239" fill="#222222" rx="6" ry="6" style="stroke:#222222;stroke-width:1;"/><g id="PACIENTES_ABIERTO"><rect fill="#F1F1F1" height="50" rx="12.5" ry="12.5" style="stroke:#181818;stroke-width:0.5;" width="165.9814" x="72.2804" y="214"/><line style="stroke:#181818;stroke-width:0.5;" x1="72.2804" x2="238.2618" y1="240.2969" y2="240.2969"/><text fill="#000000" font-family="sans-serif" font-size="14" lengthAdjust="spacing" textLength="145.9814" x="82.2804" y="231.9951">PACIENTES_ABIERTO</text></g><g id="PROGRESO_ABIERTO"><rect fill="#F1F1F1" height="50" rx="12.5" ry="12.5" style="stroke:#181818;stroke-width:0.5;" width="166.9727" x="286.7804" y="214"/><line style="stroke:#181818;stroke-width:0.5;" x1="286.7804" x2="453.753" y1="240.2969" y2="240.2969"/><text fill="#000000" font-family="sans-serif" font-size="14" lengthAdjust="spacing" textLength="146.9727" x="296.7804" y="231.9951">PROGRESO_ABIERTO</text></g><g id="REGISTROS_ABIERTOS"><rect fill="#F1F1F1" height="50" rx="12.5" ry="12.5" style="stroke:#181818;stroke-width:0.5;" width="177.9648" x="495.2804" y="214"/><line style="stroke:#181818;stroke-width:0.5;" x1="495.2804" x2="673.2452" y1="240.2969" y2="240.2969"/><text fill="#000000" font-family="sans-serif" font-size="14" lengthAdjust="spacing" textLength="157.9648" x="505.2804" y="231.9951">REGISTROS_ABIERTOS</text></g><g id="ACTIVIDADES_ABIERTAS"><rect fill="#F1F1F1" height="50" rx="12.5" ry="12.5" style="stroke:#181818;stroke-width:0.5;" width="190.5088" x="708.7804" y="214"/><line style="stroke:#181818;stroke-width:0.5;" x1="708.7804" x2="899.2892" y1="240.2969" y2="240.2969"/><text fill="#000000" font-family="sans-serif" font-size="14" lengthAdjust="spacing" textLength="170.5088" x="718.7804" y="231.9951">ACTIVIDADES_ABIERTAS</text></g><g id="ACTIVIDAD_ABIERTA"><rect fill="#F1F1F1" height="50" rx="12.5" ry="12.5" style="stroke:#181818;stroke-width:0.5;" width="163.8896" x="543.2804" y="341"/><line style="stroke:#181818;stroke-width:0.5;" x1="543.2804" x2="707.17" y1="367.2969" y2="367.2969"/><text fill="#000000" font-family="sans-serif" font-size="14" lengthAdjust="spacing" textLength="143.8896" x="553.2804" y="358.9951">ACTIVIDAD_ABIERTA</text></g><g id="ACTIVIDAD_EN_CURSO"><rect fill="#F1F1F1" height="50" rx="12.5" ry="12.5" style="stroke:#181818;stroke-width:0.5;" width="179.8516" x="461.2804" y="468"/><line style="stroke:#181818;stroke-width:0.5;" x1="461.2804" x2="641.1319" y1="494.2969" y2="494.2969"/><text fill="#000000" font-family="sans-serif" font-size="14" lengthAdjust="spacing" textLength="159.8516" x="471.2804" y="485.9951">ACTIVIDAD_EN_CURSO</text></g><g id="RESULTADO_ACTIVIDAD"><rect fill="#F1F1F1" height="50" rx="12.5" ry="12.5" style="stroke:#181818;stroke-width:0.5;" width="189.3125" x="742.7804" y="595"/><line style="stroke:#181818;stroke-width:0.5;" x1="742.7804" x2="932.0929" y1="621.2969" y2="621.2969"/><text fill="#000000" font-family="sans-serif" font-size="14" lengthAdjust="spacing" textLength="169.3125" x="752.7804" y="612.9951">RESULTADO_ACTIVIDAD</text></g><!--link *start* to HOME--><g class="link" data-entity-1=".start." data-entity-2="HOME" data-source-line="1" data-uid="lnk4" id="link_.start._HOME"><path d="M543.2804,26.01 C543.2804,39.89 543.2804,60.97 543.2804,80.84" fill="none" id="*start*-to-HOME" style="stroke:#181818;stroke-width:1;"/><polygon fill="#181818" points="543.2804,86.84,547.2804,77.84,543.2804,81.84,539.2804,77.84,543.2804,86.84" style="stroke:#181818;stroke-width:1;"/></g><!--link HOME to *end*--><g class="link" data-entity-1="HOME" data-entity-2=".end." data-source-line="2" data-uid="lnk6" id="link_HOME_.end."><path d="M512.0904,114.43 C408.4404,119.46 79.9304,137.6 43.2804,167 C24.6104,181.98 20.7225,206.1198 19.8225,221.8798" fill="none" id="HOME-to-*end*" style="stroke:#181818;stroke-width:1;"/><polygon fill="#181818" points="19.4804,227.87,23.987,219.1127,19.7654,222.8781,16,218.6566,19.4804,227.87" style="stroke:#181818;stroke-width:1;"/><text fill="#000000" font-family="sans-serif" font-size="13" lengthAdjust="spacing" textLength="44.7383" x="44.2804" y="180.0669">Logout</text></g><!--link HOME to PACIENTES_ABIERTO--><g class="link" data-entity-1="HOME" data-entity-2="PACIENTES_ABIERTO" data-source-line="4" data-uid="lnk8" id="link_HOME_PACIENTES_ABIERTO"><path d="M512.1004,114.47 C416.0404,119.32 129.4704,136.28 102.2804,167 C89.1304,181.86 98.1097,195.8947 114.7997,210.0147" fill="none" id="HOME-to-PACIENTES_ABIERTO" style="stroke:#181818;stroke-width:1;"/><polygon fill="#181818" points="119.3804,213.89,115.0929,205.0233,115.5632,210.6606,109.9259,211.1308,119.3804,213.89" style="stroke:#181818;stroke-width:1;"/><text fill="#000000" font-family="sans-serif" font-size="13" lengthAdjust="spacing" textLength="88.2515" x="103.2804" y="180.0669">ver pacientes</text></g><!--link PACIENTES_ABIERTO to HOME--><g class="link" data-entity-1="PACIENTES_ABIERTO" data-entity-2="HOME" data-source-line="9" data-uid="lnk15" id="link_PACIENTES_ABIERTO_HOME"><path d="M184.1904,213.7 C204.3004,198.03 232.4104,178.51 260.2804,167 C346.9704,131.21 452.4974,119.332 505.9774,115.292" fill="none" id="PACIENTES_ABIERTO-to-HOME" style="stroke:#181818;stroke-width:1;"/><polygon fill="#181818" points="511.9604,114.84,502.6846,111.5293,506.9746,115.2166,503.2873,119.5066,511.9604,114.84" style="stroke:#181818;stroke-width:1;"/><text fill="#000000" font-family="sans-serif" font-size="13" lengthAdjust="spacing" textLength="40.2949" x="261.2804" y="180.0669">volver</text></g><!--link HOME to PROGRESO_ABIERTO--><g class="link" data-entity-1="HOME" data-entity-2="PROGRESO_ABIERTO" data-source-line="5" data-uid="lnk10" id="link_HOME_PROGRESO_ABIERTO"><path d="M512.0604,115.67 C455.2604,121.25 338.6204,136.25 314.2804,167 C301.9004,182.63 310.9332,196.4471 327.8732,210.2071" fill="none" id="HOME-to-PROGRESO_ABIERTO" style="stroke:#181818;stroke-width:1;"/><polygon fill="#181818" points="332.5304,213.99,328.0665,205.2108,328.6494,210.8376,323.0226,211.4204,332.5304,213.99" style="stroke:#181818;stroke-width:1;"/><text fill="#000000" font-family="sans-serif" font-size="13" lengthAdjust="spacing" textLength="143.4824" x="315.2804" y="180.0669">ver progreso paciente</text></g><!--link PROGRESO_ABIERTO to HOME--><g class="link" data-entity-1="PROGRESO_ABIERTO" data-entity-2="HOME" data-source-line="10" data-uid="lnk16" id="link_PROGRESO_ABIERTO_HOME"><path d="M415.8804,213.93 C431.3504,205.15 448.4504,194.72 463.2804,184 C482.9904,169.75 499.1141,155.6053 514.4241,141.1753" fill="none" id="PROGRESO_ABIERTO-to-HOME" style="stroke:#181818;stroke-width:1;"/><polygon fill="#181818" points="518.7904,137.06,509.4974,140.3221,515.1518,140.4894,514.9845,146.1438,518.7904,137.06" style="stroke:#181818;stroke-width:1;"/><text fill="#000000" font-family="sans-serif" font-size="13" lengthAdjust="spacing" textLength="40.2949" x="485.2804" y="180.0669">volver</text></g><!--link HOME to REGISTROS_ABIERTOS--><g class="link" data-entity-1="HOME" data-entity-2="REGISTROS_ABIERTOS" data-source-line="6" data-uid="lnk12" id="link_HOME_REGISTROS_ABIERTOS"><path d="M551.1904,137.1 C558.4504,159.24 567.2809,186.1587 574.5309,208.2687" fill="none" id="HOME-to-REGISTROS_ABIERTOS" style="stroke:#181818;stroke-width:1;"/><polygon fill="#181818" points="576.4004,213.97,577.397,204.1717,574.8425,209.2189,569.7953,206.6644,576.4004,213.97" style="stroke:#181818;stroke-width:1;"/><text fill="#000000" font-family="sans-serif" font-size="13" lengthAdjust="spacing" textLength="82.3164" x="567.2804" y="180.0669">ver registros</text></g><!--link REGISTROS_ABIERTOS to HOME--><g class="link" data-entity-1="REGISTROS_ABIERTOS" data-entity-2="HOME" data-source-line="11" data-uid="lnk17" id="link_REGISTROS_ABIERTOS_HOME"><path d="M635.4304,213.81 C654.7004,201.2 669.5404,184.73 658.2804,167 C639.9504,138.14 607.5064,125.7804 580.1464,119.4604" fill="none" id="REGISTROS_ABIERTOS-to-HOME" style="stroke:#181818;stroke-width:1;"/><polygon fill="#181818" points="574.3004,118.11,582.1692,124.033,579.1721,119.2353,583.9697,116.2382,574.3004,118.11" style="stroke:#181818;stroke-width:1;"/><text fill="#000000" font-family="sans-serif" font-size="13" lengthAdjust="spacing" textLength="40.2949" x="662.2804" y="180.0669">volver</text></g><!--link HOME to ACTIVIDADES_ABIERTAS--><g class="link" data-entity-1="HOME" data-entity-2="ACTIVIDADES_ABIERTAS" data-source-line="7" data-uid="lnk14" id="link_HOME_ACTIVIDADES_ABIERTAS"><path d="M574.5704,119.67 C609.2904,127.83 666.3404,143.52 711.2804,167 C735.5804,179.7 755.5581,194.8531 773.3181,210.0231" fill="none" id="HOME-to-ACTIVIDADES_ABIERTAS" style="stroke:#181818;stroke-width:1;"/><polygon fill="#181818" points="777.8804,213.92,773.635,205.0331,774.0785,210.6726,768.4391,211.1161,777.8804,213.92" style="stroke:#181818;stroke-width:1;"/><text fill="#000000" font-family="sans-serif" font-size="13" lengthAdjust="spacing" textLength="200.2241" x="739.2804" y="180.0669">ver actividades recomendadas</text></g><!--link ACTIVIDADES_ABIERTAS to HOME--><g class="link" data-entity-1="ACTIVIDADES_ABIERTAS" data-entity-2="HOME" data-source-line="13" data-uid="lnk18" id="link_ACTIVIDADES_ABIERTAS_HOME"><path d="M900.2304,220.9 C939.2804,209.77 970.5904,192.48 948.2804,167 C923.6604,138.88 671.0888,120.832 580.4488,115.202" fill="none" id="ACTIVIDADES_ABIERTAS-to-HOME" style="stroke:#181818;stroke-width:1;"/><polygon fill="#181818" points="574.4604,114.83,583.1951,119.3803,579.4508,115.14,583.691,111.3956,574.4604,114.83" style="stroke:#181818;stroke-width:1;"/><text fill="#000000" font-family="sans-serif" font-size="13" lengthAdjust="spacing" textLength="40.2949" x="956.2804" y="180.0669">volver</text></g><!--link ACTIVIDADES_ABIERTAS to ACTIVIDAD_ABIERTA--><g class="link" data-entity-1="ACTIVIDADES_ABIERTAS" data-entity-2="ACTIVIDAD_ABIERTA" data-source-line="14" data-uid="lnk20" id="link_ACTIVIDADES_ABIERTAS_ACTIVIDAD_ABIERTA"><path d="M708.7404,263.09 C667.8804,273.92 628.1404,286.14 622.2804,294 C612.4704,307.15 612.321,319.9514 615.731,334.8414" fill="none" id="ACTIVIDADES_ABIERTAS-to-ACTIVIDAD_ABIERTA" style="stroke:#181818;stroke-width:1;"/><polygon fill="#181818" points="617.0704,340.69,618.9603,331.0242,615.9542,335.8162,611.1622,332.81,617.0704,340.69" style="stroke:#181818;stroke-width:1;"/><text fill="#000000" font-family="sans-serif" font-size="13" lengthAdjust="spacing" textLength="137.522" x="623.2804" y="307.0669">seleccionar actividad</text></g><!--link ACTIVIDAD_ABIERTA to ACTIVIDADES_ABIERTAS--><g class="link" data-entity-1="ACTIVIDAD_ABIERTA" data-entity-2="ACTIVIDADES_ABIERTAS" data-source-line="16" data-uid="lnk21" id="link_ACTIVIDAD_ABIERTA_ACTIVIDADES_ABIERTAS"><path d="M707.6404,344.13 C728.0704,336.17 748.8004,325.4 765.2804,311 C779.5704,298.51 787.3394,284.9813 793.6594,269.7613" fill="none" id="ACTIVIDAD_ABIERTA-to-ACTIVIDADES_ABIERTAS" style="stroke:#181818;stroke-width:1;"/><polygon fill="#181818" points="795.9604,264.22,788.8147,270.9979,794.0429,268.8377,796.2031,274.0659,795.9604,264.22" style="stroke:#181818;stroke-width:1;"/><text fill="#000000" font-family="sans-serif" font-size="13" lengthAdjust="spacing" textLength="40.2949" x="780.2804" y="307.0669">volver</text></g><!--link ACTIVIDAD_ABIERTA to ACTIVIDAD_EN_CURSO--><g class="link" data-entity-1="ACTIVIDAD_ABIERTA" data-entity-2="ACTIVIDAD_EN_CURSO" data-source-line="17" data-uid="lnk23" id="link_ACTIVIDAD_ABIERTA_ACTIVIDAD_EN_CURSO"><path d="M611.0104,391.1 C597.9104,413.24 581.6471,440.697 568.5571,462.807" fill="none" id="ACTIVIDAD_ABIERTA-to-ACTIVIDAD_EN_CURSO" style="stroke:#181818;stroke-width:1;"/><polygon fill="#181818" points="565.5004,467.97,573.5274,462.2633,568.0476,463.6675,566.6434,458.1877,565.5004,467.97" style="stroke:#181818;stroke-width:1;"/><text fill="#000000" font-family="sans-serif" font-size="13" lengthAdjust="spacing" textLength="112.3979" x="594.2804" y="434.0669">realizar actividad</text></g><!--link ACTIVIDAD_EN_CURSO to ACTIVIDAD_EN_CURSO--><g class="link" data-entity-1="ACTIVIDAD_EN_CURSO" data-entity-2="ACTIVIDAD_EN_CURSO" data-source-line="19" data-uid="lnk24" id="link_ACTIVIDAD_EN_CURSO_ACTIVIDAD_EN_CURSO"><path d="M641.4504,487.34 C661.5904,487.86 676.2804,489.75 676.2804,493 C676.2804,496.25 667.5884,497.9851 647.4484,498.5051" fill="none" id="ACTIVIDAD_EN_CURSO-to-ACTIVIDAD_EN_CURSO" style="stroke:#181818;stroke-width:1;"/><polygon fill="#181818" points="641.4504,498.66,650.5506,502.4264,646.4487,498.5309,650.3441,494.429,641.4504,498.66" style="stroke:#181818;stroke-width:1;"/><text fill="#000000" font-family="sans-serif" font-size="13" lengthAdjust="spacing" textLength="217.0962" x="682.2804" y="497.5669">usuario responde (acierto / error)</text></g><!--link ACTIVIDAD_EN_CURSO to ACTIVIDAD_EN_CURSO--><g class="link" data-entity-1="ACTIVIDAD_EN_CURSO" data-entity-2="ACTIVIDAD_EN_CURSO" data-source-line="20" data-uid="lnk25" id="link_ACTIVIDAD_EN_CURSO_ACTIVIDAD_EN_CURSO"><path d="M641.4704,483.66 C748.6904,478.7 905.2804,481.81 905.2804,493 C905.2804,504.19 754.684,507.5773 647.464,502.6173" fill="none" id="ACTIVIDAD_EN_CURSO-to-ACTIVIDAD_EN_CURSO-1" style="stroke:#181818;stroke-width:1;"/><polygon fill="#181818" points="641.4704,502.34,650.2759,506.7516,646.465,502.5711,650.6456,498.7602,641.4704,502.34" style="stroke:#181818;stroke-width:1;"/><text fill="#000000" font-family="sans-serif" font-size="13" lengthAdjust="spacing" textLength="151.125" x="911.2804" y="497.5669">usuario pausa / retoma</text></g><!--link ACTIVIDAD_EN_CURSO to RESULTADO_ACTIVIDAD--><g class="link" data-entity-1="ACTIVIDAD_EN_CURSO" data-entity-2="RESULTADO_ACTIVIDAD" data-source-line="21" data-uid="lnk27" id="link_ACTIVIDAD_EN_CURSO_RESULTADO_ACTIVIDAD"><path d="M606.4204,518.1 C657.0704,540.24 726.2225,570.4572 776.8125,592.5672" fill="none" id="ACTIVIDAD_EN_CURSO-to-RESULTADO_ACTIVIDAD" style="stroke:#181818;stroke-width:1;"/><polygon fill="#181818" points="782.3104,594.97,775.6654,587.7006,777.7288,592.9677,772.4617,595.031,782.3104,594.97" style="stroke:#181818;stroke-width:1;"/><text fill="#000000" font-family="sans-serif" font-size="13" lengthAdjust="spacing" textLength="129.7651" x="712.2804" y="561.0669">completar actividad</text></g><!--link RESULTADO_ACTIVIDAD to HOME--><g class="link" data-entity-1="RESULTADO_ACTIVIDAD" data-entity-2="HOME" data-source-line="23" data-uid="lnk28" id="link_RESULTADO_ACTIVIDAD_HOME"><path d="M931.7904,615.48 C1014.7504,606.71 1122.2804,578.96 1122.2804,494 C1122.2804,238 1122.2804,238 1122.2804,238 C1122.2804,124.88 700.6702,113.9129 580.4102,113.0529" fill="none" id="RESULTADO_ACTIVIDAD-to-HOME" style="stroke:#181818;stroke-width:1;"/><polygon fill="#181818" points="574.4104,113.01,583.3815,117.0743,579.4102,113.0458,583.4387,109.0745,574.4104,113.01" style="stroke:#181818;stroke-width:1;"/><text fill="#000000" font-family="sans-serif" font-size="13" lengthAdjust="spacing" textLength="157.5742" x="1123.2804" y="370.5669">finalizar / ver resultados</text></g><!--SRC=[dP91QuGm48Nl-HKvjeLbxpqKKWrRORkMwFQo50awbO3hI1Btq5_ViQXhL-sX5o7ZzzxCvENqyC4tcoV-4hzArdr-JYUgFl8zbjXwTYs_YI2IXrGccNYEf4fZWYvWUQDp0xK7Dq5Ll5CoYMz9YwK5XwFagb1o5oMfYaVpfDTOA8tp5YVk8aYZzoWKuJYA66YTUtCnXIx0aJB7CzHqq8wn-VJ3ufqKArApsTXpP67EESGM9vnpgzZuOoYJna45UMwmrfCr9wr6zAyhkkcxhCda8GkEAkbYiw0hyxNMSWHNzQrhjJL8Fgx1kW1-rqLlFV8j1slHtl_Bhj6jqsHXmUDPhrbGbiTzAa8AT038Wrv5Ku7_lTCIEWdiqzJzFMpxL-dQoki2tJS0]--></g></svg>
